<?xml version="1.0" encoding="UTF-8" standalone="no"?>
<svg width="233px" height="195px" viewBox="0 0 233 195" version="1.1" xmlns="http://www.w3.org/2000/svg" xmlns:xlink="http://www.w3.org/1999/xlink" xmlns:sketch="http://www.bohemiancoding.com/sketch/ns">
    <title>Slice 1</title>
    <description>Created with Sketch (http://www.bohemiancoding.com/sketch)</description>
    <defs></defs>
    <g id="Page 1" stroke="none" stroke-width="1" fill="none" fill-rule="evenodd">
        <g id="Group">
            <g id="Text">
                <g id="Brighton" transform="translate(7.000000, 140.197590)" fill="#C9003A">
                    <path d="M0.482496386,41.5623673 L19.8760193,41.5623673 C22.1398313,41.5623673 24.0578361,41.446102 26.0324771,40.7997551 C30.2703855,39.3301837 33.579788,35.2179184 33.579788,29.7517959 C33.579788,25.0543469 31.1988916,20.9999388 26.7872627,19.7061429 L26.7872627,19.5898776 C29.9801253,17.9450816 31.9536771,14.7122449 31.9536771,10.6594898 C31.9536771,6.19346939 29.5733253,2.78595918 26.3227373,1.3174898 C24.2898265,0.376897959 22.0831952,0.083755102 19.1217783,0.083755102 L0.482496386,0.083755102 L0.482496386,4.60873469 L5.59173012,4.60873469 L5.59173012,36.9811837 L0.482496386,36.9811837 L0.482496386,41.5623673 L0.482496386,41.5623673 Z M11.3996578,17.5334694 L11.3996578,4.90077551 L19.1223229,4.90077551 C20.8649735,4.90077551 22.1997349,5.1355102 23.3613205,5.72455102 C25.1034265,6.723 26.0330217,8.77940816 26.0330217,11.1873673 C26.0330217,14.9480816 23.7103952,17.5329184 19.9941928,17.5329184 L11.3996578,17.5334694 L11.3996578,17.5334694 Z M11.3996578,36.7453469 L11.3996578,22.3515918 L20.5736241,22.3515918 C24.8708916,22.3515918 27.6574988,25.1706122 27.6574988,29.457551 C27.6574988,32.5724694 26.1484723,35.1595102 23.7675759,36.1579592 C22.6637157,36.6285306 21.2695952,36.7436939 20.1096434,36.7436939 L11.3996578,36.7436939 L11.3996578,36.7453469 L11.3996578,36.7453469 Z M11.3996578,36.7453469" id="Shape"></path>
                    <path d="M35.9438024,41.5623673 L50.3440867,41.5623673 L50.3440867,37.1569592 L45.989094,37.1569592 L45.989094,29.2812245 C45.989094,23.4674082 48.6602506,17.062898 54.932159,17.062898 C55.8606651,17.062898 56.5566361,17.2386735 56.5566361,17.2386735 L56.5566361,11.5995306 C56.5566361,11.5995306 55.8601205,11.4810612 55.1047904,11.4810612 C50.5760771,11.4810612 47.1501349,14.8896735 45.8137398,19.2361224 L45.6982892,19.2361224 C45.6982892,19.2361224 45.8137398,18.3550408 45.8137398,17.1802653 L45.8137398,15.3001837 C45.8137398,12.8911224 44.5949735,11.8337143 42.0403566,11.8337143 L35.4210072,11.8337143 L35.4210072,16.2402245 L39.0794843,16.2402245 C39.8919952,16.2402245 40.3565205,16.6512857 40.3565205,17.5329184 L40.3565205,37.1558571 L35.9432578,37.1558571 L35.9432578,41.5629184 L35.9438024,41.5623673 L35.9438024,41.5623673 Z M35.9438024,41.5623673" id="Shape"></path>
                    <path d="M63.5816964,5.90197959 L69.503441,5.90197959 L69.503441,0.0848571429 L63.5816964,0.0848571429 L63.5816964,5.90197959 L63.5816964,5.90197959 Z M59.1096193,41.5623673 L73.9749735,41.5623673 L73.9749735,37.1569592 L69.3291759,37.1569592 L69.3291759,11.8342653 L58.819359,11.8342653 L58.819359,16.2413265 L63.6966024,16.2413265 L63.6966024,37.1580612 L59.1090747,37.1580612 L59.1090747,41.5623673 L59.1096193,41.5623673 L59.1096193,41.5623673 Z M59.1096193,41.5623673" id="Shape"></path>
                    <path d="M78.7460241,47.0846939 L76.8868337,51.435 C79.7899807,52.9029184 83.3907325,53.9024694 86.9326699,53.9024694 C94.3656193,53.9024694 101.738665,50.1417551 101.738665,40.3308367 L101.738665,17.4166531 C101.738665,16.6523878 102.260916,16.2413265 103.01788,16.2413265 L106.269012,16.2413265 L106.269012,11.8342653 L99.9981928,11.8342653 C97.5590265,11.8342653 96.6305205,12.9506327 96.6305205,14.8307143 C96.6305205,15.5955306 96.7459711,16.0071429 96.7459711,16.0071429 L96.6305205,16.0071429 C95.0054988,12.5985306 90.9413108,11.1295102 87.1080241,11.1295102 C78.9213783,11.1295102 74.2173108,17.4745102 74.2173108,25.9938367 C74.2173108,34.5710204 79.211094,41.2097143 87.3400145,41.2097143 C91.6372819,41.2097143 94.4244337,39.3307347 96.1665398,36.3932449 L96.2819904,36.3932449 C96.2819904,36.3932449 96.1082699,37.3321837 96.1082699,38.2727755 L96.1082699,40.6228776 C96.1082699,46.7347959 91.9275422,49.0837959 86.8172193,49.0837959 C82.4028675,49.0826939 78.7460241,47.0846939 78.7460241,47.0846939 L78.7460241,47.0846939 Z M88.442241,36.2758776 C83.1571084,36.2758776 79.9642458,32.0440408 79.9642458,25.8770204 C79.9642458,19.8251633 82.8684819,16.063898 87.9189012,16.063898 C92.5069735,16.063898 96.2231759,18.2966327 96.2231759,26.0522449 C96.2226313,33.8056531 92.5069735,36.2758776 88.442241,36.2758776 L88.442241,36.2758776 Z M88.442241,36.2758776" id="Shape"></path>
                    <path d="M105.555614,41.5623673 L120.417701,41.5623673 L120.417701,37.1569592 L115.774627,37.1569592 L115.774627,27.6375306 C115.774627,21.2930816 119.837725,16.3581429 125.586839,16.3581429 C130.288728,16.3581429 131.160053,19.6482857 131.160053,23.8206122 L131.160053,41.5640204 L141.380154,41.5640204 L141.380154,37.1586122 L136.79426,37.1586122 L136.79426,22.5268163 C136.79426,14.9480816 133.599764,11.1284082 126.691243,11.1284082 C120.82668,11.1284082 116.995571,15.064898 115.717446,17.9434286 L115.60254,17.9434286 C115.60254,17.9434286 115.775171,16.8854694 115.775171,15.4754082 L115.775171,0.0832040816 L105.265899,0.0832040816 L105.265899,4.48916327 L110.200867,4.48916327 L110.200867,37.1564082 L105.556704,37.1564082 L105.555614,41.5623673 L105.555614,41.5623673 Z M105.555614,41.5623673" id="Shape"></path>
                    <path d="M144.208149,30.6929388 C144.208149,40.6228776 151.697735,41.7976531 155.415027,41.7976531 C156.634337,41.7976531 157.446848,41.6808367 157.446848,41.6808367 L157.446848,36.9238776 C157.446848,36.9238776 156.923508,36.9811837 156.110453,36.9811837 C153.903822,36.9811837 149.838,36.2163673 149.838,30.1628571 L149.838,16.2407755 L156.863605,16.2407755 L156.863605,11.8337143 L149.838,11.8337143 L149.838,3.66814286 L144.321422,3.66814286 L144.321422,11.8348163 L139.268824,11.8348163 L139.268824,16.2418776 L144.205427,16.2418776 L144.205427,30.6929388 L144.208149,30.6929388 L144.208149,30.6929388 Z M144.208149,30.6929388" id="Shape"></path>
                    <path d="M157.032969,26.6390816 C157.032969,35.6879388 164.114665,42.2671224 172.88401,42.2671224 C181.653899,42.2671224 188.738318,35.6862857 188.738318,26.6390816 C188.738318,17.6508367 181.654443,11.1289592 172.88401,11.1289592 C164.114665,11.1289592 157.032969,17.6508367 157.032969,26.6390816 L157.032969,26.6390816 Z M162.780993,26.6390816 C162.780993,20.4715102 167.310795,16.063898 172.88401,16.063898 C178.399499,16.063898 182.987571,20.4709592 182.987571,26.6390816 C182.987571,32.8667143 178.400043,37.3316327 172.88401,37.3316327 C167.312429,37.3310816 162.780993,32.8667143 162.780993,26.6390816 L162.780993,26.6390816 Z M162.780993,26.6390816" id="Shape"></path>
                    <path d="M189.737075,41.5623673 L204.604063,41.5623673 L204.604063,37.1569592 L199.957176,37.1569592 L199.957176,27.756 C199.957176,21.8220612 203.847099,16.3575918 209.772111,16.3575918 C214.473455,16.3575918 215.288689,19.6477347 215.288689,23.8200612 L215.288689,41.5634694 L225.565427,41.5634694 L225.565427,37.1580612 L220.920173,37.1580612 L220.920173,22.5262653 C220.920173,14.9475306 217.899942,11.1278571 211.165142,11.1278571 C203.731648,11.1278571 200.305161,16.767 199.72573,18.3539388 L199.609735,18.3539388 C199.609735,18.3539388 199.783455,17.5902245 199.783455,16.6501837 L199.783455,15.1233061 C199.783455,12.9489796 198.620781,11.8326122 196.067253,11.8326122 L189.447904,11.8326122 L189.447904,16.2396735 L193.048111,16.2396735 C193.861711,16.2396735 194.32787,16.6507347 194.32787,17.5318163 L194.32787,37.1553061 L189.739253,37.1553061 L189.739253,41.5607143 L189.737075,41.5607143 L189.737075,41.5623673 Z M189.737075,41.5623673" id="Shape"></path>
                </g>
                <g id="UX" fill="#108BC1">
                    <path d="M116.001652,111 L168.395236,111 L168.395236,90.8175825 L158.746569,90.8175825 L169.175059,76.2238126 C171.200619,73.2720969 172.287746,70.9450045 172.598353,70.9450045 L172.910613,70.9450045 C172.910613,70.9450045 174.310001,73.4270167 176.489211,76.2238126 L187.697526,90.8175825 L177.734947,90.8175825 L177.734947,111 L232.694349,111 L232.694349,90.8175825 L220.962297,90.8175825 L194.19055,56.2029072 L221.428208,20.1857136 L233,20.1857136 L233,0 L180.533721,0 L180.533721,20.1840656 L189.87178,20.1840656 L179.596941,34.1565084 C177.41773,37.106576 176.175299,39.4369646 176.175299,39.2787486 L175.864692,39.2787486 C175.864692,39.2787486 174.463652,36.9483601 172.286094,34.1565084 L161.703951,20.1840656 L171.352618,20.1840656 L171.352618,0 L119.094513,0 L119.094513,20.1840656 L128.43092,20.1840656 L154.578146,54.3389259 L127.185184,90.8192306 L116,90.8192306 L116,111 L116.001652,111 L116.001652,111 Z M116.001652,111" id="Shape copy"></path>
                    <path d="M21.7550998,98.0779936 C29.8308065,107.404454 43.6569706,113 59.5032982,113 C74.1045455,113 88.8641075,108.181659 97.4065133,97.6143107 C103.153672,90.4660047 106.572284,79.7336449 106.572284,68.7026139 L106.572284,20.2089807 L119,20.2089807 L119,0 L65.2372644,0 L65.2372644,20.2089807 L75.672852,20.2089807 L75.672852,68.7059141 C75.672852,73.8295269 74.8911724,77.8723131 73.1958841,81.1395444 C70.3264274,86.4248686 65.6330516,88.9099445 59.6302799,88.9099445 C53.2383176,88.9099445 48.1524529,85.9545853 45.675485,80.9778329 C44.2374584,78.0257739 43.327148,73.6744159 43.327148,68.704264 L43.327148,20.2089807 L53.7610865,20.2089807 L53.7610865,0 L0,0 L0,20.2089807 L12.4310144,20.2089807 L12.4310144,68.704264 C12.4343126,80.357389 15.2279102,90.6194655 21.7550998,98.0779936 Z M21.7550998,98.0779936" id="Shape copy"></path>
                </g>
            </g>
        </g>
    </g>
</svg>