<?xml version="1.0" encoding="UTF-8" standalone="no"?>
<svg width="627px" height="83px" viewBox="0 0 627 83" version="1.1" xmlns="http://www.w3.org/2000/svg" xmlns:xlink="http://www.w3.org/1999/xlink" xmlns:sketch="http://www.bohemiancoding.com/sketch/ns">
    <title>Slice 1</title>
    <description>Created with Sketch (http://www.bohemiancoding.com/sketch)</description>
    <defs></defs>
    <g id="Page 1" stroke="none" stroke-width="1" fill="none" fill-rule="evenodd">
        <g id="Group">
            <path d="M122.761516,63.9099405 L152.935468,63.9099405 C156.457682,63.9099405 159.441864,63.7311608 162.514164,62.7372811 C169.107831,60.4775392 174.256857,54.1541595 174.256857,45.7489703 C174.256857,38.5257608 170.552473,32.2913473 163.688518,30.3018932 L163.688518,30.1231135 C168.656222,27.5939311 171.726827,22.6228378 171.726827,16.3909662 C171.726827,9.52362162 168.023291,4.28393514 162.965773,2.02588784 C159.802812,0.579551351 156.369564,0.128789189 151.761961,0.128789189 L122.761516,0.128789189 L122.761516,7.08679459 L130.710859,7.08679459 L130.710859,56.8655108 L122.761516,56.8655108 L122.761516,63.9099405 L122.761516,63.9099405 Z M139.747285,26.961 L139.747285,7.53586216 L151.762808,7.53586216 C154.474159,7.53586216 156.550885,7.89681081 158.35817,8.80257162 C161.068674,10.3378743 162.515011,13.4999878 162.515011,17.202677 C162.515011,22.9854811 158.901288,26.9601527 153.119331,26.9601527 L139.747285,26.961 L139.747285,26.961 Z M139.747285,56.5028676 L139.747285,34.3697676 L154.020855,34.3697676 C160.706878,34.3697676 165.042499,38.7045405 165.042499,45.2965135 C165.042499,50.0862851 162.694638,54.0643459 158.990254,55.5996486 C157.272782,56.3232405 155.103701,56.5003257 153.298958,56.5003257 L139.747285,56.5003257 L139.747285,56.5028676 L139.747285,56.5028676 Z M139.747285,56.5028676" id="Shape" fill="#C9003A"></path>
            <path d="M177.934974,63.9099405 L200.340057,63.9099405 L200.340057,57.1357986 L193.56422,57.1357986 L193.56422,45.0253784 C193.56422,36.0855446 197.720214,26.2374081 207.478536,26.2374081 C208.923178,26.2374081 210.006024,26.5076959 210.006024,26.5076959 L210.006024,17.8364554 C210.006024,17.8364554 208.922331,17.6542865 207.74713,17.6542865 C200.701005,17.6542865 195.370658,22.8956676 193.291391,29.5791486 L193.111764,29.5791486 C193.111764,29.5791486 193.291391,28.2243203 193.291391,26.4178824 L193.291391,23.5269041 C193.291391,19.8225203 191.395139,18.1965568 187.420468,18.1965568 L177.121569,18.1965568 L177.121569,24.9723932 L182.813712,24.9723932 C184.07788,24.9723932 184.800624,25.604477 184.800624,26.9601527 L184.800624,57.1341041 L177.934127,57.1341041 L177.934127,63.9107878 L177.934974,63.9099405 L177.934974,63.9099405 Z M177.934974,63.9099405" id="Shape" fill="#C9003A"></path>
            <path d="M220.936159,9.07540135 L230.14967,9.07540135 L230.14967,0.130483784 L220.936159,0.130483784 L220.936159,9.07540135 L220.936159,9.07540135 Z M213.978154,63.9099405 L237.106828,63.9099405 L237.106828,57.1357986 L229.878535,57.1357986 L229.878535,18.1974041 L213.526545,18.1974041 L213.526545,24.9740878 L221.114939,24.9740878 L221.114939,57.1374932 L213.977307,57.1374932 L213.977307,63.9099405 L213.978154,63.9099405 L213.978154,63.9099405 Z M213.978154,63.9099405" id="Shape" fill="#C9003A"></path>
            <path d="M244.53,72.4015541 L241.637327,79.0909662 C246.154269,81.3481662 251.756599,82.8851635 257.26742,82.8851635 C268.832181,82.8851635 280.303739,77.1023595 280.303739,62.0162311 L280.303739,26.781373 C280.303739,25.6061716 281.116297,24.9740878 282.294041,24.9740878 L287.352405,24.9740878 L287.352405,18.1974041 L277.595777,18.1974041 C273.800732,18.1974041 272.356091,19.9140284 272.356091,22.8050068 C272.356091,23.9810554 272.535718,24.6139865 272.535718,24.6139865 L272.356091,24.6139865 C269.827755,19.3726054 263.504376,17.1137108 257.54025,17.1137108 C244.80283,17.1137108 237.483876,26.8703392 237.483876,39.9704027 C237.483876,53.1594324 245.253592,63.3676703 257.901199,63.3676703 C264.587222,63.3676703 268.923689,60.4783865 271.634193,55.9614446 L271.81382,55.9614446 C271.81382,55.9614446 271.543532,57.4052392 271.543532,58.8515757 L271.543532,62.4652986 C271.543532,71.8635203 265.038831,75.4755486 257.087793,75.4755486 C250.219601,75.4738541 244.53,72.4015541 244.53,72.4015541 L244.53,72.4015541 Z M259.616128,55.7809703 C251.393108,55.7809703 246.425404,49.273727 246.425404,39.7907757 C246.425404,30.4849095 250.944041,24.7012581 258.801876,24.7012581 C265.940355,24.7012581 271.722312,28.1345068 271.722312,40.0602162 C271.721465,51.9825365 265.940355,55.7809703 259.616128,55.7809703 L259.616128,55.7809703 Z M259.616128,55.7809703" id="Shape" fill="#C9003A"></path>
            <path d="M286.242446,63.9099405 L309.366036,63.9099405 L309.366036,57.1357986 L302.14198,57.1357986 L302.14198,42.4978905 C302.14198,32.7421095 308.463665,25.1537149 317.408582,25.1537149 C324.724147,25.1537149 326.079823,30.212927 326.079823,36.6286622 L326.079823,63.9124824 L341.981051,63.9124824 L341.981051,57.1383405 L334.845961,57.1383405 L334.845961,34.6392081 C334.845961,22.9854811 329.875715,17.1120162 319.126901,17.1120162 C310.002357,17.1120162 304.04162,23.1651081 302.053014,27.5913892 L301.874234,27.5913892 C301.874234,27.5913892 302.142827,25.9645784 302.142827,23.7963446 L302.142827,0.127941892 L285.791684,0.127941892 L285.791684,6.90293108 L293.469892,6.90293108 L293.469892,57.1349514 L286.244141,57.1349514 L286.242446,63.9099405 L286.242446,63.9099405 Z M286.242446,63.9099405" id="Shape" fill="#C9003A"></path>
            <path d="M346.381066,47.1961541 C346.381066,62.4652986 358.033946,64.2717365 363.817597,64.2717365 C365.714696,64.2717365 366.978864,64.0921095 366.978864,64.0921095 L366.978864,56.7773919 C366.978864,56.7773919 366.164611,56.8655108 364.899596,56.8655108 C361.466347,56.8655108 355.140426,55.6894622 355.140426,46.3810541 L355.140426,24.9732405 L366.071408,24.9732405 L366.071408,18.1965568 L355.140426,18.1965568 L355.140426,5.64045811 L346.557304,5.64045811 L346.557304,18.1982514 L338.69608,18.1982514 L338.69608,24.9749351 L346.37683,24.9749351 L346.37683,47.1961541 L346.381066,47.1961541 L346.381066,47.1961541 Z M346.381066,47.1961541" id="Shape" fill="#C9003A"></path>
            <path d="M366.334918,40.9625878 C366.334918,54.8769041 377.353172,64.9936338 390.9972,64.9936338 C404.642076,64.9936338 415.664566,54.8743622 415.664566,40.9625878 C415.664566,27.1414743 404.642923,17.1128635 390.9972,17.1128635 C377.353172,17.1128635 366.334918,27.1414743 366.334918,40.9625878 L366.334918,40.9625878 Z M375.278141,40.9625878 C375.278141,31.4787892 382.325959,24.7012581 390.9972,24.7012581 C399.578627,24.7012581 406.717107,31.4779419 406.717107,40.9625878 C406.717107,50.5387419 399.579474,57.4043919 390.9972,57.4043919 C382.328501,57.4035446 375.278141,50.5387419 375.278141,40.9625878 L375.278141,40.9625878 Z M375.278141,40.9625878" id="Shape" fill="#C9003A"></path>
            <path d="M417.218509,63.9099405 L440.349726,63.9099405 L440.349726,57.1357986 L433.119738,57.1357986 L433.119738,42.6800595 C433.119738,33.5555149 439.171982,25.1528676 448.390577,25.1528676 C455.705295,25.1528676 456.973699,30.2120797 456.973699,36.6278149 L456.973699,63.9116351 L472.963046,63.9116351 L472.963046,57.1374932 L465.7356,57.1374932 L465.7356,34.6383608 C465.7356,22.9846338 461.036489,17.1111689 450.557964,17.1111689 C438.992355,17.1111689 433.661161,25.7824095 432.759636,28.2226257 L432.579162,28.2226257 C432.579162,28.2226257 432.84945,27.0482716 432.84945,25.6027824 L432.84945,23.2549216 C432.84945,19.9114865 431.04047,18.1948622 427.067493,18.1948622 L416.768595,18.1948622 L416.768595,24.9715459 L422.370077,24.9715459 C423.635939,24.9715459 424.361226,25.6036297 424.361226,26.9584581 L424.361226,57.1332568 L417.221899,57.1332568 L417.221899,63.9073986 L417.218509,63.9073986 L417.218509,63.9099405 Z M417.218509,63.9099405" id="Shape" fill="#C9003A"></path>
            <path d="M6.76821081,42.1225378 C6.76821081,48.1078459 8.20353243,53.3797297 11.5588297,57.2129027 C15.7088919,62.0035216 22.8177162,64.8784014 30.9619378,64.8784014 C38.4672973,64.8784014 46.0548446,62.4025986 50.4446919,56.9748122 C53.3983703,53.3026257 55.1565122,47.7892622 55.1565122,42.1233851 L55.1565122,17.2086081 L61.5451338,17.2086081 L61.5451338,6.82667432 L33.9113797,6.82667432 L33.9113797,17.2086081 L39.2756189,17.2086081 L39.2756189,42.1225378 C39.2756189,44.7525486 38.8731527,46.8318162 38.0021311,48.5094649 C36.5269865,51.2250527 34.1138838,52.5010824 31.0288743,52.5010824 C27.7430554,52.5010824 25.1291432,50.983573 23.8565027,48.4264297 C23.1168122,46.9097676 22.6491041,44.67375 22.6491041,42.1216905 L22.6491041,17.2086081 L28.0124959,17.2086081 L28.0124959,6.82667432 L0.377894595,6.82667432 L0.377894595,17.2086081 L6.76736351,17.2086081 L6.76736351,42.1216905 L6.76821081,42.1216905 L6.76821081,42.1225378 Z M6.76821081,42.1225378" id="Shape" fill="#108BC1"></path>
            <path d="M59.8107162,63.9209554 L86.6920703,63.9209554 L86.6920703,53.5390216 L81.7421595,53.5390216 L87.0919946,46.0328149 C88.1324757,44.5153054 88.6899973,43.3180743 88.8484419,43.3180743 L89.0085811,43.3180743 C89.0085811,43.3180743 89.7270892,44.5957986 90.8446743,46.0328149 L96.5944338,53.5390216 L91.4835365,53.5390216 L91.4835365,63.9209554 L119.681591,63.9209554 L119.681591,53.5390216 L113.662391,53.5390216 L99.9268541,35.7356108 L113.900481,17.2103027 L119.838341,17.2103027 L119.838341,6.82667432 L92.9188581,6.82667432 L92.9188581,17.2086081 L97.7103243,17.2086081 L92.4384405,24.3953838 C91.3200081,25.9120459 90.6828405,27.1109716 90.6828405,27.0287838 L90.5235486,27.0287838 C90.5235486,27.0287838 89.8033459,25.8307054 88.6874554,24.3953838 L83.2579743,17.2086081 L88.2078851,17.2086081 L88.2078851,6.82667432 L61.3968568,6.82667432 L61.3968568,17.2086081 L66.1866284,17.2086081 L79.6010392,34.775623 L65.5469189,53.5390216 L59.8081743,53.5390216 L59.8107162,63.9209554 L59.8107162,63.9209554 Z M59.8107162,63.9209554" id="Shape" fill="#108BC1"></path>
            <path d="M482.971322,63.8853689 L515.592268,63.8853689 L515.592268,52.7764541 L511.092272,52.7764541 L511.092272,59.6658284 L487.960208,59.6658284 C488.033076,46.2336243 513.27152,43.9162662 513.27152,27.4676838 C513.27152,19.7335541 507.575988,13.6169149 498.225215,13.6169149 C487.682295,13.6169149 483.248388,22.5457338 483.248388,22.5457338 L486.767214,24.9359595 C486.767214,24.9359595 490.630889,18.1152162 497.943912,18.1152162 C504.130877,18.1152162 508.208919,22.1220851 508.208919,27.6066405 C508.208919,41.2472797 482.689172,43.3562027 482.689172,60.7241027 C482.689172,61.7061203 482.759497,62.7618527 482.971322,63.8853689 L482.971322,63.8853689 Z M482.971322,63.8853689" id="Shape" fill="#FFA039"></path>
            <path d="M538.716705,64.7301243 C551.584609,64.7301243 555.800761,53.4814054 555.800761,39.1383568 C555.800761,24.9368068 551.582915,13.6177622 538.716705,13.6177622 C525.846259,13.6177622 521.702128,24.9368068 521.702128,39.1383568 C521.701281,53.4814054 525.847107,64.7301243 538.716705,64.7301243 L538.716705,64.7301243 Z M538.716705,60.2309757 C529.364238,60.2309757 526.763882,51.0200068 526.763882,39.1383568 C526.763882,27.3270324 529.362543,18.1169108 538.716705,18.1169108 C548.136109,18.1169108 550.740701,27.3261851 550.740701,39.1383568 C550.737312,51.0200068 548.135262,60.2309757 538.716705,60.2309757 L538.716705,60.2309757 Z M538.716705,60.2309757" id="Shape" fill="#FFA039"></path>
            <path d="M562.162269,63.8853689 L588.881789,63.8853689 L588.881789,59.667523 L578.052482,59.667523 L578.052482,14.460823 L573.482161,14.460823 L562.304615,25.5688905 L565.395555,28.6615257 L570.669134,23.4591203 C572.637405,21.560327 573.128838,20.5054419 573.128838,20.5054419 L573.269489,20.5054419 C573.269489,20.5054419 573.198316,21.8416297 573.198316,23.2489905 L573.198316,59.6658284 L562.160574,59.6658284 L562.162269,63.8853689 L562.162269,63.8853689 Z M562.162269,63.8853689" id="Shape" fill="#FFA039"></path>
            <path d="M600.792443,25.3816378 L600.792443,18.624116 L617.334293,18.624116 C618.249374,18.624116 619.657191,18.4833343 619.657191,18.4833343 C619.657191,18.624116 618.671719,19.3984154 617.967811,20.1727148 L604.593549,36.0106565 L605.860584,38.9670723 C606.001366,38.9670723 607.409183,38.8262906 608.957782,38.8262906 C615.363349,38.8262906 621.135399,42.5570058 621.135399,49.3849185 C621.135399,55.7904861 615.715304,60.2251098 609.802472,60.2251098 C602.20026,60.2251098 597.132119,54.382669 597.132119,54.382669 L594.175703,57.9726025 C594.175703,57.9726025 600.158925,64.7301243 609.872863,64.7301243 C619.305237,64.7301243 626.203541,57.6910391 626.203541,49.2441368 C626.203541,38.5447272 617.05273,35.0955755 610.928726,34.8140121 L625.570023,17.8498166 L625.570023,14.4006649 L596.287428,14.4006649 L596.287428,25.3816378 L600.792443,25.3816378 Z M600.792443,25.3816378" id="3" fill="#FFA039"></path>
        </g>
    </g>
</svg>