<?xml version="1.0" encoding="UTF-8" standalone="no"?>
<svg width="993px" height="309px" viewBox="0 0 993 309" version="1.1" xmlns="http://www.w3.org/2000/svg" xmlns:xlink="http://www.w3.org/1999/xlink" xmlns:sketch="http://www.bohemiancoding.com/sketch/ns">
    <title>Slice 1</title>
    <description>Created with Sketch (http://www.bohemiancoding.com/sketch)</description>
    <defs></defs>
    <g id="Page 1" stroke="none" stroke-width="1" fill="none" fill-rule="evenodd">
        <g id="Group" transform="translate(0.000000, 0.482432)">
            <path d="M122.761516,63.9099405 L152.935468,63.9099405 C156.457682,63.9099405 159.441864,63.7311608 162.514164,62.7372811 C169.107831,60.4775392 174.256857,54.1541595 174.256857,45.7489703 C174.256857,38.5257608 170.552473,32.2913473 163.688518,30.3018932 L163.688518,30.1231135 C168.656222,27.5939311 171.726827,22.6228378 171.726827,16.3909662 C171.726827,9.52362162 168.023291,4.28393514 162.965773,2.02588784 C159.802812,0.579551351 156.369564,0.128789189 151.761961,0.128789189 L122.761516,0.128789189 L122.761516,7.08679459 L130.710859,7.08679459 L130.710859,56.8655108 L122.761516,56.8655108 L122.761516,63.9099405 L122.761516,63.9099405 Z M139.747285,26.961 L139.747285,7.53586216 L151.762808,7.53586216 C154.474159,7.53586216 156.550885,7.89681081 158.35817,8.80257162 C161.068674,10.3378743 162.515011,13.4999878 162.515011,17.202677 C162.515011,22.9854811 158.901288,26.9601527 153.119331,26.9601527 L139.747285,26.961 L139.747285,26.961 Z M139.747285,56.5028676 L139.747285,34.3697676 L154.020855,34.3697676 C160.706878,34.3697676 165.042499,38.7045405 165.042499,45.2965135 C165.042499,50.0862851 162.694638,54.0643459 158.990254,55.5996486 C157.272782,56.3232405 155.103701,56.5003257 153.298958,56.5003257 L139.747285,56.5003257 L139.747285,56.5028676 L139.747285,56.5028676 Z M139.747285,56.5028676" id="Shape" fill="#C9003A"></path>
            <path d="M177.934974,63.9099405 L200.340057,63.9099405 L200.340057,57.1357986 L193.56422,57.1357986 L193.56422,45.0253784 C193.56422,36.0855446 197.720214,26.2374081 207.478536,26.2374081 C208.923178,26.2374081 210.006024,26.5076959 210.006024,26.5076959 L210.006024,17.8364554 C210.006024,17.8364554 208.922331,17.6542865 207.74713,17.6542865 C200.701005,17.6542865 195.370658,22.8956676 193.291391,29.5791486 L193.111764,29.5791486 C193.111764,29.5791486 193.291391,28.2243203 193.291391,26.4178824 L193.291391,23.5269041 C193.291391,19.8225203 191.395139,18.1965568 187.420468,18.1965568 L177.121569,18.1965568 L177.121569,24.9723932 L182.813712,24.9723932 C184.07788,24.9723932 184.800624,25.604477 184.800624,26.9601527 L184.800624,57.1341041 L177.934127,57.1341041 L177.934127,63.9107878 L177.934974,63.9099405 L177.934974,63.9099405 Z M177.934974,63.9099405" id="Shape" fill="#C9003A"></path>
            <path d="M220.936159,9.07540135 L230.14967,9.07540135 L230.14967,0.130483784 L220.936159,0.130483784 L220.936159,9.07540135 L220.936159,9.07540135 Z M213.978154,63.9099405 L237.106828,63.9099405 L237.106828,57.1357986 L229.878535,57.1357986 L229.878535,18.1974041 L213.526545,18.1974041 L213.526545,24.9740878 L221.114939,24.9740878 L221.114939,57.1374932 L213.977307,57.1374932 L213.977307,63.9099405 L213.978154,63.9099405 L213.978154,63.9099405 Z M213.978154,63.9099405" id="Shape" fill="#C9003A"></path>
            <path d="M244.53,72.4015541 L241.637327,79.0909662 C246.154269,81.3481662 251.756599,82.8851635 257.26742,82.8851635 C268.832181,82.8851635 280.303739,77.1023595 280.303739,62.0162311 L280.303739,26.781373 C280.303739,25.6061716 281.116297,24.9740878 282.294041,24.9740878 L287.352405,24.9740878 L287.352405,18.1974041 L277.595777,18.1974041 C273.800732,18.1974041 272.356091,19.9140284 272.356091,22.8050068 C272.356091,23.9810554 272.535718,24.6139865 272.535718,24.6139865 L272.356091,24.6139865 C269.827755,19.3726054 263.504376,17.1137108 257.54025,17.1137108 C244.80283,17.1137108 237.483876,26.8703392 237.483876,39.9704027 C237.483876,53.1594324 245.253592,63.3676703 257.901199,63.3676703 C264.587222,63.3676703 268.923689,60.4783865 271.634193,55.9614446 L271.81382,55.9614446 C271.81382,55.9614446 271.543532,57.4052392 271.543532,58.8515757 L271.543532,62.4652986 C271.543532,71.8635203 265.038831,75.4755486 257.087793,75.4755486 C250.219601,75.4738541 244.53,72.4015541 244.53,72.4015541 L244.53,72.4015541 Z M259.616128,55.7809703 C251.393108,55.7809703 246.425404,49.273727 246.425404,39.7907757 C246.425404,30.4849095 250.944041,24.7012581 258.801876,24.7012581 C265.940355,24.7012581 271.722312,28.1345068 271.722312,40.0602162 C271.721465,51.9825365 265.940355,55.7809703 259.616128,55.7809703 L259.616128,55.7809703 Z M259.616128,55.7809703" id="Shape" fill="#C9003A"></path>
            <path d="M286.242446,63.9099405 L309.366036,63.9099405 L309.366036,57.1357986 L302.14198,57.1357986 L302.14198,42.4978905 C302.14198,32.7421095 308.463665,25.1537149 317.408582,25.1537149 C324.724147,25.1537149 326.079823,30.212927 326.079823,36.6286622 L326.079823,63.9124824 L341.981051,63.9124824 L341.981051,57.1383405 L334.845961,57.1383405 L334.845961,34.6392081 C334.845961,22.9854811 329.875715,17.1120162 319.126901,17.1120162 C310.002357,17.1120162 304.04162,23.1651081 302.053014,27.5913892 L301.874234,27.5913892 C301.874234,27.5913892 302.142827,25.9645784 302.142827,23.7963446 L302.142827,0.127941892 L285.791684,0.127941892 L285.791684,6.90293108 L293.469892,6.90293108 L293.469892,57.1349514 L286.244141,57.1349514 L286.242446,63.9099405 L286.242446,63.9099405 Z M286.242446,63.9099405" id="Shape" fill="#C9003A"></path>
            <path d="M346.381066,47.1961541 C346.381066,62.4652986 358.033946,64.2717365 363.817597,64.2717365 C365.714696,64.2717365 366.978864,64.0921095 366.978864,64.0921095 L366.978864,56.7773919 C366.978864,56.7773919 366.164611,56.8655108 364.899596,56.8655108 C361.466347,56.8655108 355.140426,55.6894622 355.140426,46.3810541 L355.140426,24.9732405 L366.071408,24.9732405 L366.071408,18.1965568 L355.140426,18.1965568 L355.140426,5.64045811 L346.557304,5.64045811 L346.557304,18.1982514 L338.69608,18.1982514 L338.69608,24.9749351 L346.37683,24.9749351 L346.37683,47.1961541 L346.381066,47.1961541 L346.381066,47.1961541 Z M346.381066,47.1961541" id="Shape" fill="#C9003A"></path>
            <path d="M366.334918,40.9625878 C366.334918,54.8769041 377.353172,64.9936338 390.9972,64.9936338 C404.642076,64.9936338 415.664566,54.8743622 415.664566,40.9625878 C415.664566,27.1414743 404.642923,17.1128635 390.9972,17.1128635 C377.353172,17.1128635 366.334918,27.1414743 366.334918,40.9625878 L366.334918,40.9625878 Z M375.278141,40.9625878 C375.278141,31.4787892 382.325959,24.7012581 390.9972,24.7012581 C399.578627,24.7012581 406.717107,31.4779419 406.717107,40.9625878 C406.717107,50.5387419 399.579474,57.4043919 390.9972,57.4043919 C382.328501,57.4035446 375.278141,50.5387419 375.278141,40.9625878 L375.278141,40.9625878 Z M375.278141,40.9625878" id="Shape" fill="#C9003A"></path>
            <path d="M417.218509,63.9099405 L440.349726,63.9099405 L440.349726,57.1357986 L433.119738,57.1357986 L433.119738,42.6800595 C433.119738,33.5555149 439.171982,25.1528676 448.390577,25.1528676 C455.705295,25.1528676 456.973699,30.2120797 456.973699,36.6278149 L456.973699,63.9116351 L472.963046,63.9116351 L472.963046,57.1374932 L465.7356,57.1374932 L465.7356,34.6383608 C465.7356,22.9846338 461.036489,17.1111689 450.557964,17.1111689 C438.992355,17.1111689 433.661161,25.7824095 432.759636,28.2226257 L432.579162,28.2226257 C432.579162,28.2226257 432.84945,27.0482716 432.84945,25.6027824 L432.84945,23.2549216 C432.84945,19.9114865 431.04047,18.1948622 427.067493,18.1948622 L416.768595,18.1948622 L416.768595,24.9715459 L422.370077,24.9715459 C423.635939,24.9715459 424.361226,25.6036297 424.361226,26.9584581 L424.361226,57.1332568 L417.221899,57.1332568 L417.221899,63.9073986 L417.218509,63.9073986 L417.218509,63.9099405 Z M417.218509,63.9099405" id="Shape" fill="#C9003A"></path>
            <path d="M6.76821081,42.1225378 C6.76821081,48.1078459 8.20353243,53.3797297 11.5588297,57.2129027 C15.7088919,62.0035216 22.8177162,64.8784014 30.9619378,64.8784014 C38.4672973,64.8784014 46.0548446,62.4025986 50.4446919,56.9748122 C53.3983703,53.3026257 55.1565122,47.7892622 55.1565122,42.1233851 L55.1565122,17.2086081 L61.5451338,17.2086081 L61.5451338,6.82667432 L33.9113797,6.82667432 L33.9113797,17.2086081 L39.2756189,17.2086081 L39.2756189,42.1225378 C39.2756189,44.7525486 38.8731527,46.8318162 38.0021311,48.5094649 C36.5269865,51.2250527 34.1138838,52.5010824 31.0288743,52.5010824 C27.7430554,52.5010824 25.1291432,50.983573 23.8565027,48.4264297 C23.1168122,46.9097676 22.6491041,44.67375 22.6491041,42.1216905 L22.6491041,17.2086081 L28.0124959,17.2086081 L28.0124959,6.82667432 L0.377894595,6.82667432 L0.377894595,17.2086081 L6.76736351,17.2086081 L6.76736351,42.1216905 L6.76821081,42.1216905 L6.76821081,42.1225378 Z M6.76821081,42.1225378" id="Shape" fill="#108BC1"></path>
            <path d="M59.8107162,63.9209554 L86.6920703,63.9209554 L86.6920703,53.5390216 L81.7421595,53.5390216 L87.0919946,46.0328149 C88.1324757,44.5153054 88.6899973,43.3180743 88.8484419,43.3180743 L89.0085811,43.3180743 C89.0085811,43.3180743 89.7270892,44.5957986 90.8446743,46.0328149 L96.5944338,53.5390216 L91.4835365,53.5390216 L91.4835365,63.9209554 L119.681591,63.9209554 L119.681591,53.5390216 L113.662391,53.5390216 L99.9268541,35.7356108 L113.900481,17.2103027 L119.838341,17.2103027 L119.838341,6.82667432 L92.9188581,6.82667432 L92.9188581,17.2086081 L97.7103243,17.2086081 L92.4384405,24.3953838 C91.3200081,25.9120459 90.6828405,27.1109716 90.6828405,27.0287838 L90.5235486,27.0287838 C90.5235486,27.0287838 89.8033459,25.8307054 88.6874554,24.3953838 L83.2579743,17.2086081 L88.2078851,17.2086081 L88.2078851,6.82667432 L61.3968568,6.82667432 L61.3968568,17.2086081 L66.1866284,17.2086081 L79.6010392,34.775623 L65.5469189,53.5390216 L59.8081743,53.5390216 L59.8107162,63.9209554 L59.8107162,63.9209554 Z M59.8107162,63.9209554" id="Shape" fill="#108BC1"></path>
            <path d="M482.971322,63.8853689 L515.592268,63.8853689 L515.592268,52.7764541 L511.092272,52.7764541 L511.092272,59.6658284 L487.960208,59.6658284 C488.033076,46.2336243 513.27152,43.9162662 513.27152,27.4676838 C513.27152,19.7335541 507.575988,13.6169149 498.225215,13.6169149 C487.682295,13.6169149 483.248388,22.5457338 483.248388,22.5457338 L486.767214,24.9359595 C486.767214,24.9359595 490.630889,18.1152162 497.943912,18.1152162 C504.130877,18.1152162 508.208919,22.1220851 508.208919,27.6066405 C508.208919,41.2472797 482.689172,43.3562027 482.689172,60.7241027 C482.689172,61.7061203 482.759497,62.7618527 482.971322,63.8853689 L482.971322,63.8853689 Z M482.971322,63.8853689" id="Shape" fill="#FFA039"></path>
            <path d="M538.716705,64.7301243 C551.584609,64.7301243 555.800761,53.4814054 555.800761,39.1383568 C555.800761,24.9368068 551.582915,13.6177622 538.716705,13.6177622 C525.846259,13.6177622 521.702128,24.9368068 521.702128,39.1383568 C521.701281,53.4814054 525.847107,64.7301243 538.716705,64.7301243 L538.716705,64.7301243 Z M538.716705,60.2309757 C529.364238,60.2309757 526.763882,51.0200068 526.763882,39.1383568 C526.763882,27.3270324 529.362543,18.1169108 538.716705,18.1169108 C548.136109,18.1169108 550.740701,27.3261851 550.740701,39.1383568 C550.737312,51.0200068 548.135262,60.2309757 538.716705,60.2309757 L538.716705,60.2309757 Z M538.716705,60.2309757" id="Shape" fill="#FFA039"></path>
            <path d="M562.162269,63.8853689 L588.881789,63.8853689 L588.881789,59.667523 L578.052482,59.667523 L578.052482,14.460823 L573.482161,14.460823 L562.304615,25.5688905 L565.395555,28.6615257 L570.669134,23.4591203 C572.637405,21.560327 573.128838,20.5054419 573.128838,20.5054419 L573.269489,20.5054419 C573.269489,20.5054419 573.198316,21.8416297 573.198316,23.2489905 L573.198316,59.6658284 L562.160574,59.6658284 L562.162269,63.8853689 L562.162269,63.8853689 Z M562.162269,63.8853689" id="Shape" fill="#FFA039"></path>
            <path d="M600.792443,25.3816378 L600.792443,18.624116 L617.334293,18.624116 C618.249374,18.624116 619.657191,18.4833343 619.657191,18.4833343 C619.657191,18.624116 618.671719,19.3984154 617.967811,20.1727148 L604.593549,36.0106565 L605.860584,38.9670723 C606.001366,38.9670723 607.409183,38.8262906 608.957782,38.8262906 C615.363349,38.8262906 621.135399,42.5570058 621.135399,49.3849185 C621.135399,55.7904861 615.715304,60.2251098 609.802472,60.2251098 C602.20026,60.2251098 597.132119,54.382669 597.132119,54.382669 L594.175703,57.9726025 C594.175703,57.9726025 600.158925,64.7301243 609.872863,64.7301243 C619.305237,64.7301243 626.203541,57.6910391 626.203541,49.2441368 C626.203541,38.5447272 617.05273,35.0955755 610.928726,34.8140121 L625.570023,17.8498166 L625.570023,14.4006649 L596.287428,14.4006649 L596.287428,25.3816378 L600.792443,25.3816378 Z M600.792443,25.3816378" id="3" fill="#FFA039"></path>
        </g>
        <path d="M4.914,289 L4.914,283.722 L13.286,283.722 L13.286,230.305 L4.914,230.305 L4.914,225.027 L47.957,225.027 L47.957,238.677 L42.224,238.677 L42.224,230.669 L19.656,230.669 L19.656,254.784 L43.043,254.784 L43.043,260.244 L19.656,260.244 L19.656,283.722 L28.574,283.722 L28.574,289 Z M53.963,265.886 C53.963,252.327 64.792,242.135 78.078,242.135 C91.455,242.135 102.284,252.327 102.284,265.886 C102.284,279.718 91.455,290.092 78.078,290.092 C64.792,290.092 53.963,279.718 53.963,265.886 Z M60.333,265.886 C60.333,276.533 68.341,284.541 78.078,284.541 C87.906,284.541 95.914,276.533 95.914,265.886 C95.914,255.512 87.906,247.686 78.078,247.686 C68.341,247.686 60.333,255.512 60.333,265.886 Z M116.116,248.323 L107.926,248.323 L107.926,243.227 L122.304,243.227 L122.304,270.8 C122.304,277.989 123.396,284.359 132.314,284.359 C142.597,284.359 149.149,274.895 149.149,264.976 L149.149,248.323 L140.959,248.323 L140.959,243.227 L155.337,243.227 L155.337,281.993 C155.337,283.358 156.065,283.995 157.339,283.995 L162.526,283.995 L162.526,289 L154.791,289 C150.969,289 149.331,287.362 149.331,283.904 L149.331,281.629 C149.331,279.809 149.422,278.353 149.422,278.353 L149.24,278.353 C148.057,281.811 142.415,290.092 131.131,290.092 C120.575,290.092 116.116,284.268 116.116,272.347 Z M169.806,283.904 L177.541,283.904 L177.541,250.325 C177.541,248.96 176.813,248.323 175.539,248.323 L169.351,248.323 L169.351,243.227 L178.087,243.227 C181.909,243.227 183.638,244.865 183.638,248.323 L183.638,250.962 C183.638,252.782 183.274,254.238 183.274,254.238 L183.456,254.238 C184.73,250.78 190.645,242.135 202.111,242.135 C213.395,242.135 217.308,248.596 217.308,259.88 L217.308,283.904 L225.043,283.904 L225.043,289 L211.12,289 L211.12,261.518 C211.12,254.329 209.937,247.959 201.11,247.959 C191.009,247.959 183.729,256.877 183.729,266.978 L183.729,283.904 L191.464,283.904 L191.464,289 L169.806,289 Z M231.322,266.159 C231.322,251.599 239.785,242.135 251.979,242.135 C262.899,242.135 266.903,251.053 266.903,251.053 L267.085,251.053 C267.085,251.053 266.812,249.506 266.812,247.504 L266.812,230.123 L258.622,230.123 L258.622,225.027 L273,225.027 L273,281.902 C273,283.267 273.728,283.904 275.002,283.904 L280.098,283.904 L280.098,289 L272.545,289 C268.632,289 267.085,287.271 267.085,283.995 L267.085,283.176 C267.085,281.356 267.449,280.355 267.449,280.355 L267.267,280.355 C267.267,280.355 263.354,290.092 251.16,290.092 C238.875,290.092 231.322,280.264 231.322,266.159 Z M237.692,266.159 C237.692,277.352 243.607,284.541 252.161,284.541 C259.805,284.541 266.994,279.081 266.994,266.159 C266.994,256.786 262.262,247.777 252.525,247.777 C244.335,247.777 237.692,254.511 237.692,266.159 Z M286.65,276.442 C286.65,261.609 306.488,260.972 314.223,260.972 L317.226,260.972 L317.226,259.061 C317.226,250.507 312.585,247.504 306.215,247.504 C298.48,247.504 292.929,251.963 292.929,251.963 L290.017,247.322 C290.017,247.322 296.205,242.135 306.579,242.135 C317.681,242.135 323.414,248.05 323.414,259.334 L323.414,281.902 C323.414,283.267 324.142,283.904 325.416,283.904 L330.421,283.904 L330.421,289 L322.959,289 C319.046,289 317.499,287.271 317.499,283.995 L317.499,283.176 C317.499,280.992 317.772,279.627 317.772,279.627 L317.59,279.627 C317.59,279.627 313.677,290.092 301.938,290.092 C294.476,290.092 286.65,285.815 286.65,276.442 Z M293.02,275.805 C293.02,280.537 296.478,284.996 302.848,284.996 C312.039,284.996 317.226,275.805 317.226,267.797 L317.226,265.613 L314.587,265.613 C310.856,265.613 293.02,265.249 293.02,275.805 Z M342.069,248.323 L333.879,248.323 L333.879,243.227 L342.16,243.227 L342.16,230.578 L348.257,230.578 L348.257,243.227 L359.814,243.227 L359.814,248.323 L348.257,248.323 L348.257,271.801 C348.257,282.539 355.082,283.995 358.631,283.995 C359.905,283.995 360.724,283.813 360.724,283.813 L360.724,289.182 C360.724,289.182 359.632,289.364 358.085,289.364 C352.807,289.364 342.069,287.635 342.069,272.347 Z M374.647,232.762 L374.647,225.027 L381.654,225.027 L381.654,232.762 Z M367.276,289 L367.276,283.904 L375.011,283.904 L375.011,248.323 L366.821,248.323 L366.821,243.227 L381.199,243.227 L381.199,283.904 L388.934,283.904 L388.934,289 Z M395.395,265.886 C395.395,252.327 406.224,242.135 419.51,242.135 C432.887,242.135 443.716,252.327 443.716,265.886 C443.716,279.718 432.887,290.092 419.51,290.092 C406.224,290.092 395.395,279.718 395.395,265.886 Z M401.765,265.886 C401.765,276.533 409.773,284.541 419.51,284.541 C429.338,284.541 437.346,276.533 437.346,265.886 C437.346,255.512 429.338,247.686 419.51,247.686 C409.773,247.686 401.765,255.512 401.765,265.886 Z M451.633,283.904 L459.368,283.904 L459.368,250.325 C459.368,248.96 458.64,248.323 457.366,248.323 L451.178,248.323 L451.178,243.227 L459.914,243.227 C463.736,243.227 465.465,244.865 465.465,248.323 L465.465,250.962 C465.465,252.782 465.101,254.238 465.101,254.238 L465.283,254.238 C466.557,250.78 472.472,242.135 483.938,242.135 C495.222,242.135 499.135,248.596 499.135,259.88 L499.135,283.904 L506.87,283.904 L506.87,289 L492.947,289 L492.947,261.518 C492.947,254.329 491.764,247.959 482.937,247.959 C472.836,247.959 465.556,256.877 465.556,266.978 L465.556,283.904 L473.291,283.904 L473.291,289 L451.633,289 Z M512.876,279.263 L512.876,274.804 L518.518,274.804 L518.518,278.08 C518.518,282.721 525.161,284.723 530.439,284.723 C536.263,284.723 541.177,282.175 541.177,277.534 C541.177,272.256 535.353,270.436 528.801,267.979 C521.885,265.431 514.605,262.337 514.605,254.329 C514.605,245.957 522.795,242.135 530.439,242.135 C536.627,242.135 545.636,244.774 545.636,251.053 L545.636,256.331 L539.994,256.331 L539.994,252.964 C539.994,249.597 535.444,247.504 530.621,247.504 C525.525,247.504 520.975,249.688 520.975,254.147 C520.975,259.152 526.526,261.245 532.532,263.429 C539.63,265.977 547.456,268.98 547.456,277.17 C547.456,285.087 540.358,290.092 530.166,290.092 C521.703,290.092 512.876,286.27 512.876,279.263 Z M578.396,265.886 C578.396,252.327 589.225,242.135 602.511,242.135 C615.888,242.135 626.717,252.327 626.717,265.886 C626.717,279.718 615.888,290.092 602.511,290.092 C589.225,290.092 578.396,279.718 578.396,265.886 Z M584.766,265.886 C584.766,276.533 592.774,284.541 602.511,284.541 C612.339,284.541 620.347,276.533 620.347,265.886 C620.347,255.512 612.339,247.686 602.511,247.686 C592.774,247.686 584.766,255.512 584.766,265.886 Z M634.634,289 L634.634,283.904 L642.369,283.904 L642.369,248.323 L634.179,248.323 L634.179,243.227 L642.369,243.227 L642.369,240.861 C642.369,226.392 652.561,224.572 657.293,224.572 C659.568,224.572 661.024,224.845 661.024,224.845 L661.024,230.214 C661.024,230.214 659.841,229.941 657.93,229.941 C654.836,229.941 648.557,231.033 648.557,240.77 L648.557,243.227 L660.205,243.227 L660.205,248.323 L648.557,248.323 L648.557,283.904 L657.657,283.904 L657.657,289 Z M690.417,289 L690.417,283.722 L698.789,283.722 L698.789,230.305 L690.417,230.305 L690.417,225.027 L717.444,225.027 C722.904,225.027 726.817,225.391 731.094,226.665 C743.197,230.578 750.841,241.589 750.841,257.059 C750.841,272.802 743.015,283.631 730.275,287.453 C726.271,288.727 722.176,289 717.444,289 Z M705.159,283.54 L716.898,283.54 C721.175,283.54 724.724,283.176 728.273,281.993 C738.01,278.808 744.198,269.981 744.198,257.059 C744.198,244.319 738.283,235.31 728.728,231.943 C724.997,230.669 721.357,230.487 716.898,230.487 L705.159,230.487 Z M760.396,266.159 C760.396,251.144 770.588,242.135 782.964,242.135 C795.613,242.135 802.165,251.872 802.165,263.247 C802.165,264.339 801.892,266.159 801.892,266.159 L766.766,266.159 C767.039,277.898 775.047,284.541 784.511,284.541 C792.883,284.541 798.434,279.081 798.434,279.081 L801.255,283.722 C801.255,283.722 794.703,290.092 784.329,290.092 C770.679,290.092 760.396,280.264 760.396,266.159 Z M767.039,261.609 L795.704,261.609 C795.34,251.963 789.516,247.322 782.782,247.322 C775.138,247.322 768.495,252.327 767.039,261.609 Z M810.446,274.804 L816.088,274.804 L816.088,278.08 C816.088,282.721 822.731,284.723 828.009,284.723 C833.833,284.723 838.747,282.175 838.747,277.534 C838.747,272.256 832.923,270.436 826.371,267.979 C819.455,265.431 812.175,262.337 812.175,254.329 C812.175,245.957 820.365,242.135 828.009,242.135 C834.197,242.135 843.206,244.774 843.206,251.053 L843.206,256.331 L837.564,256.331 L837.564,252.964 C837.564,249.597 833.014,247.504 828.191,247.504 C823.095,247.504 818.545,249.688 818.545,254.147 C818.545,259.152 824.096,261.245 830.102,263.429 C837.2,265.977 845.026,268.98 845.026,277.17 C845.026,285.087 837.928,290.092 827.736,290.092 C819.273,290.092 810.446,286.27 810.446,279.263 Z M860.678,232.762 L860.678,225.027 L867.685,225.027 L867.685,232.762 Z M853.307,289 L853.307,283.904 L861.042,283.904 L861.042,248.323 L852.852,248.323 L852.852,243.227 L867.23,243.227 L867.23,283.904 L874.965,283.904 L874.965,289 Z M888.251,299.465 C888.251,299.465 893.893,302.65 900.627,302.65 C909.545,302.65 916.643,298.464 916.643,288.181 L916.643,283.631 C916.643,281.902 916.916,280.355 916.916,280.355 L916.734,280.355 C914.004,285.451 909.272,288.727 902.174,288.727 C889.889,288.727 881.79,278.99 881.79,265.249 C881.79,251.508 889.343,242.135 901.628,242.135 C908.089,242.135 914.55,244.592 917.007,250.234 L917.189,250.234 C917.189,250.234 917.007,249.597 917.007,248.232 C917.007,244.865 918.372,243.227 922.285,243.227 L930.475,243.227 L930.475,248.323 L924.833,248.323 C923.559,248.323 922.831,248.96 922.831,250.234 L922.831,287.908 C922.831,302.468 912.093,308.11 900.809,308.11 C895.622,308.11 890.344,306.745 885.885,304.47 Z M903.084,283.176 C910.364,283.176 916.734,278.717 916.734,265.249 C916.734,251.872 910.364,247.686 902.265,247.686 C893.347,247.686 888.16,254.238 888.16,265.158 C888.16,276.169 894.075,283.176 903.084,283.176 Z M937.209,283.904 L944.944,283.904 L944.944,250.325 C944.944,248.96 944.216,248.323 942.942,248.323 L936.754,248.323 L936.754,243.227 L945.49,243.227 C949.312,243.227 951.041,244.865 951.041,248.323 L951.041,250.962 C951.041,252.782 950.677,254.238 950.677,254.238 L950.859,254.238 C952.133,250.78 958.048,242.135 969.514,242.135 C980.798,242.135 984.711,248.596 984.711,259.88 L984.711,283.904 L992.446,283.904 L992.446,289 L978.523,289 L978.523,261.518 C978.523,254.329 977.34,247.959 968.513,247.959 C958.412,247.959 951.132,256.877 951.132,266.978 L951.132,283.904 L958.867,283.904 L958.867,289 L937.209,289 Z M937.209,283.904" id="Foundations of Desig" fill="#C9003A"></path>
        <path d="M18.2,186.722 L26.572,186.722 L26.572,133.487 L8.645,133.487 L8.645,143.861 L2.912,143.861 L2.912,128.027 L56.602,128.027 L56.602,143.861 L50.778,143.861 L50.778,133.487 L32.942,133.487 L32.942,186.722 L41.314,186.722 L41.314,192 L18.2,192 Z M62.944,186.904 L70.679,186.904 L70.679,133.123 L62.489,133.123 L62.489,128.027 L76.867,128.027 L76.867,153.143 C76.867,155.236 76.503,156.874 76.503,156.874 L76.685,156.874 C78.505,152.597 84.693,145.135 95.067,145.135 C106.351,145.135 110.355,151.596 110.355,162.88 L110.355,186.904 L118.181,186.904 L118.181,192 L104.167,192 L104.167,164.518 C104.167,157.329 103.075,150.959 94.248,150.959 C84.42,150.959 76.867,159.149 76.867,170.069 L76.867,186.904 L84.602,186.904 L84.602,192 L62.944,192 Z M125.069,169.159 C125.069,154.144 135.261,145.135 147.637,145.135 C160.286,145.135 166.838,154.872 166.838,166.247 C166.838,167.339 166.565,169.159 166.565,169.159 L131.439,169.159 C131.712,180.898 139.72,187.541 149.184,187.541 C157.556,187.541 163.107,182.081 163.107,182.081 L165.928,186.722 C165.928,186.722 159.376,193.092 149.002,193.092 C135.352,193.092 125.069,183.264 125.069,169.159 Z M131.712,164.609 L160.377,164.609 C160.013,154.963 154.189,150.322 147.455,150.322 C139.811,150.322 133.168,155.327 131.712,164.609 Z M200.088,192 L200.088,186.722 L208.46,186.722 L208.46,133.305 L200.088,133.305 L200.088,128.027 L229.208,128.027 C233.121,128.027 237.125,128.391 240.128,129.847 C246.407,132.668 250.411,139.038 250.411,147.228 C250.411,156.055 245.861,162.88 238.763,165.428 C235.76,166.429 232.757,166.702 229.299,166.702 L214.83,166.702 L214.83,186.722 L223.202,186.722 L223.202,192 Z M214.83,161.242 L228.662,161.242 C231.665,161.242 234.213,160.878 236.397,159.968 C241.129,158.057 243.95,153.507 243.95,147.228 C243.95,141.404 241.493,137.218 237.307,135.034 C235.032,134.033 232.029,133.487 228.662,133.487 L214.83,133.487 Z M257.845,182.263 L257.845,177.804 L263.487,177.804 L263.487,181.08 C263.487,185.721 270.13,187.723 275.408,187.723 C281.232,187.723 286.146,185.175 286.146,180.534 C286.146,175.256 280.322,173.436 273.77,170.979 C266.854,168.431 259.574,165.337 259.574,157.329 C259.574,148.957 267.764,145.135 275.408,145.135 C281.596,145.135 290.605,147.774 290.605,154.053 L290.605,159.331 L284.963,159.331 L284.963,155.964 C284.963,152.597 280.413,150.504 275.59,150.504 C270.494,150.504 265.944,152.688 265.944,157.147 C265.944,162.152 271.495,164.245 277.501,166.429 C284.599,168.977 292.425,171.98 292.425,180.17 C292.425,188.087 285.327,193.092 275.135,193.092 C266.672,193.092 257.845,189.27 257.845,182.263 Z M302.953,203.466 C302.953,203.466 305.592,205.65 309.05,205.65 C313.145,205.65 316.057,202.374 317.786,198.37 L320.334,192.273 L303.954,151.323 L297.948,151.323 L297.948,146.227 L317.149,146.227 L317.149,151.323 L310.506,151.323 L322.518,182.536 C323.064,184.265 323.246,185.812 323.246,185.812 L323.519,185.812 C323.519,185.812 323.792,184.265 324.429,182.536 L336.441,151.323 L329.798,151.323 L329.798,146.227 L348.726,146.227 L348.726,151.323 L342.72,151.323 L323.246,200.463 C320.607,207.015 315.602,211.11 309.232,211.11 C304.045,211.11 300.587,208.38 300.587,208.38 Z M353.703,169.25 C353.703,154.963 364.441,145.135 377.636,145.135 C383.369,145.135 394.562,147.501 394.562,155.054 L394.562,160.059 L388.829,160.059 L388.829,156.692 C388.829,152.597 381.913,150.686 377.727,150.686 C367.717,150.686 360.073,157.966 360.073,169.068 C360.073,180.443 368.172,187.541 378,187.541 C386.918,187.541 392.196,181.899 393.015,181.262 L395.654,185.994 C394.653,186.904 388.374,193.092 377.818,193.092 C364.714,193.092 353.703,183.81 353.703,169.25 Z M402.997,186.904 L410.732,186.904 L410.732,133.123 L402.542,133.123 L402.542,128.027 L416.92,128.027 L416.92,153.143 C416.92,155.236 416.556,156.874 416.556,156.874 L416.738,156.874 C418.558,152.597 424.746,145.135 435.12,145.135 C446.404,145.135 450.408,151.596 450.408,162.88 L450.408,186.904 L458.234,186.904 L458.234,192 L444.22,192 L444.22,164.518 C444.22,157.329 443.128,150.959 434.301,150.959 C424.473,150.959 416.92,159.149 416.92,170.069 L416.92,186.904 L424.655,186.904 L424.655,192 L402.997,192 Z M464.94,168.886 C464.94,155.327 475.769,145.135 489.055,145.135 C502.432,145.135 513.261,155.327 513.261,168.886 C513.261,182.718 502.432,193.092 489.055,193.092 C475.769,193.092 464.94,182.718 464.94,168.886 Z M471.31,168.886 C471.31,179.533 479.318,187.541 489.055,187.541 C498.883,187.541 506.891,179.533 506.891,168.886 C506.891,158.512 498.883,150.686 489.055,150.686 C479.318,150.686 471.31,158.512 471.31,168.886 Z M526.155,180.534 L526.155,133.123 L518.056,133.123 L518.056,128.027 L532.343,128.027 L532.343,180.079 C532.343,183.81 533.344,186.904 537.53,186.904 C539.168,186.904 540.078,186.722 540.078,186.722 L540.078,192 C540.078,192 538.349,192.273 536.529,192.273 C530.523,192.273 526.155,189.27 526.155,180.534 Z M547.148,168.886 C547.148,155.327 557.977,145.135 571.263,145.135 C584.64,145.135 595.469,155.327 595.469,168.886 C595.469,182.718 584.64,193.092 571.263,193.092 C557.977,193.092 547.148,182.718 547.148,168.886 Z M553.518,168.886 C553.518,179.533 561.526,187.541 571.263,187.541 C581.091,187.541 589.099,179.533 589.099,168.886 C589.099,158.512 581.091,150.686 571.263,150.686 C561.526,150.686 553.518,158.512 553.518,168.886 Z M611.184,202.465 C611.184,202.465 616.826,205.65 623.56,205.65 C632.478,205.65 639.576,201.464 639.576,191.181 L639.576,186.631 C639.576,184.902 639.849,183.355 639.849,183.355 L639.667,183.355 C636.937,188.451 632.205,191.727 625.107,191.727 C612.822,191.727 604.723,181.99 604.723,168.249 C604.723,154.508 612.276,145.135 624.561,145.135 C631.022,145.135 637.483,147.592 639.94,153.234 L640.122,153.234 C640.122,153.234 639.94,152.597 639.94,151.232 C639.94,147.865 641.305,146.227 645.218,146.227 L653.408,146.227 L653.408,151.323 L647.766,151.323 C646.492,151.323 645.764,151.96 645.764,153.234 L645.764,190.908 C645.764,205.468 635.026,211.11 623.742,211.11 C618.555,211.11 613.277,209.745 608.818,207.47 Z M626.017,186.176 C633.297,186.176 639.667,181.717 639.667,168.249 C639.667,154.872 633.297,150.686 625.198,150.686 C616.28,150.686 611.093,157.238 611.093,168.158 C611.093,179.169 617.008,186.176 626.017,186.176 Z M668.213,135.762 L668.213,128.027 L675.22,128.027 L675.22,135.762 Z M660.842,192 L660.842,186.904 L668.577,186.904 L668.577,151.323 L660.387,151.323 L660.387,146.227 L674.765,146.227 L674.765,186.904 L682.5,186.904 L682.5,192 Z M689.752,169.25 C689.752,154.963 700.49,145.135 713.685,145.135 C719.418,145.135 730.611,147.501 730.611,155.054 L730.611,160.059 L724.878,160.059 L724.878,156.692 C724.878,152.597 717.962,150.686 713.776,150.686 C703.766,150.686 696.122,157.966 696.122,169.068 C696.122,180.443 704.221,187.541 714.049,187.541 C722.967,187.541 728.245,181.899 729.064,181.262 L731.703,185.994 C730.702,186.904 724.423,193.092 713.867,193.092 C700.763,193.092 689.752,183.81 689.752,169.25 Z M739.774,179.442 C739.774,164.609 759.612,163.972 767.347,163.972 L770.35,163.972 L770.35,162.061 C770.35,153.507 765.709,150.504 759.339,150.504 C751.604,150.504 746.053,154.963 746.053,154.963 L743.141,150.322 C743.141,150.322 749.329,145.135 759.703,145.135 C770.805,145.135 776.538,151.05 776.538,162.334 L776.538,184.902 C776.538,186.267 777.266,186.904 778.54,186.904 L783.545,186.904 L783.545,192 L776.083,192 C772.17,192 770.623,190.271 770.623,186.995 L770.623,186.176 C770.623,183.992 770.896,182.627 770.896,182.627 L770.714,182.627 C770.714,182.627 766.801,193.092 755.062,193.092 C747.6,193.092 739.774,188.815 739.774,179.442 Z M746.144,178.805 C746.144,183.537 749.602,187.996 755.972,187.996 C765.163,187.996 770.35,178.805 770.35,170.797 L770.35,168.613 L767.711,168.613 C763.98,168.613 746.144,168.249 746.144,178.805 Z M794.437,180.534 L794.437,133.123 L786.338,133.123 L786.338,128.027 L800.625,128.027 L800.625,180.079 C800.625,183.81 801.626,186.904 805.812,186.904 C807.45,186.904 808.36,186.722 808.36,186.722 L808.36,192 C808.36,192 806.631,192.273 804.811,192.273 C798.805,192.273 794.437,189.27 794.437,180.534 Z M794.437,180.534" id="The Psychological" fill="#C9003A"></path>
    </g>
</svg>