<?xml version="1.0" encoding="UTF-8" standalone="no"?>
<svg width="559px" height="98px" viewBox="0 0 559 98" version="1.1" xmlns="http://www.w3.org/2000/svg" xmlns:xlink="http://www.w3.org/1999/xlink" xmlns:sketch="http://www.bohemiancoding.com/sketch/ns">
    <title>UX-Brighton-logo-559x98</title>
    <description>Created with Sketch (http://www.bohemiancoding.com/sketch)</description>
    <defs></defs>
    <g id="Page 1" stroke="none" stroke-width="1" fill="none" fill-rule="evenodd">
        <g id="Group">
            <path d="M144.886,75.428 L180.498,75.428 C184.655,75.428 188.177,75.217 191.803,74.044 C199.585,71.377 205.662,63.914 205.662,53.994 C205.662,45.469 201.29,38.111 193.189,35.763 L193.189,35.552 C199.052,32.567 202.676,26.7 202.676,19.345 C202.676,11.24 198.305,5.056 192.336,2.391 C188.603,0.684 184.551,0.152 179.113,0.152 L144.886,0.152 L144.886,8.364 L154.268,8.364 L154.268,67.114 L144.886,67.114 L144.886,75.428 L144.886,75.428 Z M164.933,31.82 L164.933,8.894 L179.114,8.894 C182.314,8.894 184.765,9.32 186.898,10.389 C190.097,12.201 191.804,15.933 191.804,20.303 C191.804,27.128 187.539,31.819 180.715,31.819 L164.933,31.82 L164.933,31.82 Z M164.933,66.686 L164.933,40.564 L181.779,40.564 C189.67,40.564 194.787,45.68 194.787,53.46 C194.787,59.113 192.016,63.808 187.644,65.62 C185.617,66.474 183.057,66.683 180.927,66.683 L164.933,66.683 L164.933,66.686 L164.933,66.686 Z M164.933,66.686" id="Shape" fill="#C9003A"></path>
            <path d="M210.003,75.428 L236.446,75.428 L236.446,67.433 L228.449,67.433 L228.449,53.14 C228.449,42.589 233.354,30.966 244.871,30.966 C246.576,30.966 247.854,31.285 247.854,31.285 L247.854,21.051 C247.854,21.051 246.575,20.836 245.188,20.836 C236.872,20.836 230.581,27.022 228.127,34.91 L227.915,34.91 C227.915,34.91 228.127,33.311 228.127,31.179 L228.127,27.767 C228.127,23.395 225.889,21.476 221.198,21.476 L209.043,21.476 L209.043,29.473 L215.761,29.473 C217.253,29.473 218.106,30.219 218.106,31.819 L218.106,67.431 L210.002,67.431 L210.002,75.429 L210.003,75.428 L210.003,75.428 Z M210.003,75.428" id="Shape" fill="#C9003A"></path>
            <path d="M260.754,10.711 L271.628,10.711 L271.628,0.154 L260.754,0.154 L260.754,10.711 L260.754,10.711 Z M252.542,75.428 L279.839,75.428 L279.839,67.433 L271.308,67.433 L271.308,21.477 L252.009,21.477 L252.009,29.475 L260.965,29.475 L260.965,67.435 L252.541,67.435 L252.541,75.428 L252.542,75.428 L252.542,75.428 Z M252.542,75.428" id="Shape" fill="#C9003A"></path>
            <path d="M288.6,85.45 L285.186,93.345 C290.517,96.009 297.129,97.823 303.633,97.823 C317.282,97.823 330.821,90.998 330.821,73.193 L330.821,31.608 C330.821,30.221 331.78,29.475 333.17,29.475 L339.14,29.475 L339.14,21.477 L327.625,21.477 C323.146,21.477 321.441,23.503 321.441,26.915 C321.441,28.303 321.653,29.05 321.653,29.05 L321.441,29.05 C318.457,22.864 310.994,20.198 303.955,20.198 C288.922,20.198 280.284,31.713 280.284,47.174 C280.284,62.74 289.454,74.788 304.381,74.788 C312.272,74.788 317.39,71.378 320.589,66.047 L320.801,66.047 C320.801,66.047 320.482,67.751 320.482,69.458 L320.482,73.723 C320.482,84.815 312.805,89.078 303.421,89.078 C295.315,89.076 288.6,85.45 288.6,85.45 L288.6,85.45 Z M306.405,65.834 C296.7,65.834 290.837,58.154 290.837,46.962 C290.837,35.979 296.17,29.153 305.444,29.153 C313.869,29.153 320.693,33.205 320.693,47.28 C320.692,61.351 313.869,65.834 306.405,65.834 L306.405,65.834 Z M306.405,65.834" id="Shape" fill="#C9003A"></path>
            <path d="M337.83,75.428 L365.121,75.428 L365.121,67.433 L356.595,67.433 L356.595,50.157 C356.595,38.643 364.056,29.687 374.613,29.687 C383.247,29.687 384.847,35.658 384.847,43.23 L384.847,75.431 L403.614,75.431 L403.614,67.436 L395.193,67.436 L395.193,40.882 C395.193,27.128 389.327,20.196 376.641,20.196 C365.872,20.196 358.837,27.34 356.49,32.564 L356.279,32.564 C356.279,32.564 356.596,30.644 356.596,28.085 L356.596,0.151 L337.298,0.151 L337.298,8.147 L346.36,8.147 L346.36,67.432 L337.832,67.432 L337.83,75.428 L337.83,75.428 Z M337.83,75.428" id="Shape" fill="#C9003A"></path>
            <path d="M408.807,55.702 C408.807,73.723 422.56,75.855 429.386,75.855 C431.625,75.855 433.117,75.643 433.117,75.643 L433.117,67.01 C433.117,67.01 432.156,67.114 430.663,67.114 C426.611,67.114 419.145,65.726 419.145,54.74 L419.145,29.474 L432.046,29.474 L432.046,21.476 L419.145,21.476 L419.145,6.657 L409.015,6.657 L409.015,21.478 L399.737,21.478 L399.737,29.476 L408.802,29.476 L408.802,55.702 L408.807,55.702 L408.807,55.702 Z M408.807,55.702" id="Shape" fill="#C9003A"></path>
            <path d="M432.357,48.345 C432.357,64.767 445.361,76.707 461.464,76.707 C477.568,76.707 490.577,64.764 490.577,48.345 C490.577,32.033 477.569,20.197 461.464,20.197 C445.361,20.197 432.357,32.033 432.357,48.345 L432.357,48.345 Z M442.912,48.345 C442.912,37.152 451.23,29.153 461.464,29.153 C471.592,29.153 480.017,37.151 480.017,48.345 C480.017,59.647 471.593,67.75 461.464,67.75 C451.233,67.749 442.912,59.647 442.912,48.345 L442.912,48.345 Z M442.912,48.345" id="Shape" fill="#C9003A"></path>
            <path d="M492.411,75.428 L519.711,75.428 L519.711,67.433 L511.178,67.433 L511.178,50.372 C511.178,39.603 518.321,29.686 529.201,29.686 C537.834,29.686 539.331,35.657 539.331,43.229 L539.331,75.43 L558.202,75.43 L558.202,67.435 L549.672,67.435 L549.672,40.881 C549.672,27.127 544.126,20.195 531.759,20.195 C518.109,20.195 511.817,30.429 510.753,33.309 L510.54,33.309 C510.54,33.309 510.859,31.923 510.859,30.217 L510.859,27.446 C510.859,23.5 508.724,21.474 504.035,21.474 L491.88,21.474 L491.88,29.472 L498.491,29.472 C499.985,29.472 500.841,30.218 500.841,31.817 L500.841,67.43 L492.415,67.43 L492.415,75.425 L492.411,75.425 L492.411,75.428 Z M492.411,75.428" id="Shape" fill="#C9003A"></path>
            <path d="M7.988,49.714 C7.988,56.778 9.682,63 13.642,67.524 C18.54,73.178 26.93,76.571 36.542,76.571 C45.4,76.571 54.355,73.649 59.536,67.243 C63.022,62.909 65.097,56.402 65.097,49.715 L65.097,20.31 L72.637,20.31 L72.637,8.057 L40.023,8.057 L40.023,20.31 L46.354,20.31 L46.354,49.714 C46.354,52.818 45.879,55.272 44.851,57.252 C43.11,60.457 40.262,61.963 36.621,61.963 C32.743,61.963 29.658,60.172 28.156,57.154 C27.283,55.364 26.731,52.725 26.731,49.713 L26.731,20.31 L33.061,20.31 L33.061,8.057 L0.446,8.057 L0.446,20.31 L7.987,20.31 L7.987,49.713 L7.988,49.713 L7.988,49.714 Z M7.988,49.714" id="Shape" fill="#108BC1"></path>
            <path d="M70.59,75.441 L102.316,75.441 L102.316,63.188 L96.474,63.188 L102.788,54.329 C104.016,52.538 104.674,51.125 104.861,51.125 L105.05,51.125 C105.05,51.125 105.898,52.633 107.217,54.329 L114.003,63.188 L107.971,63.188 L107.971,75.441 L141.251,75.441 L141.251,63.188 L134.147,63.188 L117.936,42.176 L134.428,20.312 L141.436,20.312 L141.436,8.057 L109.665,8.057 L109.665,20.31 L115.32,20.31 L109.098,28.792 C107.778,30.582 107.026,31.997 107.026,31.9 L106.838,31.9 C106.838,31.9 105.988,30.486 104.671,28.792 L98.263,20.31 L104.105,20.31 L104.105,8.057 L72.462,8.057 L72.462,20.31 L78.115,20.31 L93.947,41.043 L77.36,63.188 L70.587,63.188 L70.59,75.441 L70.59,75.441 Z M70.59,75.441" id="Shape" fill="#108BC1"></path>
        </g>
    </g>
</svg>