<?xml version="1.0" encoding="utf-8"?>
<!-- Generator: Adobe Illustrator 15.1.0, SVG Export Plug-In . SVG Version: 6.00 Build 0)  -->
<!DOCTYPE svg PUBLIC "-//W3C//DTD SVG 1.1//EN" "http://www.w3.org/Graphics/SVG/1.1/DTD/svg11.dtd">
<svg version="1.1" id="Layer_1" xmlns="http://www.w3.org/2000/svg" xmlns:xlink="http://www.w3.org/1999/xlink" x="0px" y="0px"
	 width="33px" height="34px" viewBox="0.021 0.042 33 34" enable-background="new 0.021 0.042 33 34" xml:space="preserve">
<g>
	<path fill="#FFFFFF" d="M4.042,32.866c-1.581,0-2.866-1.287-2.866-2.867V7c0-1.581,1.286-2.866,2.866-2.866h3.134v-1.55
		c0-0.753,0.613-1.366,1.366-1.366S9.908,1.83,9.908,2.583v1.55h12.267v-1.55c0-0.753,0.613-1.366,1.367-1.366
		c0.752,0,1.365,0.613,1.365,1.366v1.55h4.135c1.58,0,2.865,1.286,2.865,2.866v23c0,1.58-1.285,2.867-2.865,2.867H4.042z"/>
</g>
<g>
	<path fill="#193849" d="M29.042,33.999h-25c-2.206,0-4-1.793-4-4V7c0-2.206,1.794-4,4-4h2V2.583c0-1.381,1.119-2.5,2.5-2.5
		s2.5,1.119,2.5,2.5V3h10V2.583c0-1.381,1.119-2.5,2.5-2.5s2.5,1.119,2.5,2.5V3h3c2.205,0,4,1.794,4,4v23
		C33.042,32.206,31.248,33.999,29.042,33.999z M20.042,31.999h5v-2.916h-5V31.999z M20.042,28.083h5v-3h-5V28.083z M20.042,24.083h5
		v-3h-5V24.083z M20.042,20.083h5v-3h-5V20.083z M20.042,16.083h5V13h-5V16.083z M14.042,31.999h5v-2.916h-5V31.999z M14.042,28.083
		h5v-3h-5V28.083z M14.042,24.083h5v-3h-5V24.083z M14.042,20.083h5v-3h-5V20.083z M14.042,16.083h5V13h-5V16.083z M8.042,31.999h5
		v-2.916h-5V31.999z M8.042,28.083h5v-3h-5V28.083z M8.042,24.083h5v-3h-5V24.083z M8.042,20.083h5v-3h-5V20.083z M8.042,16.083h5
		V13h-5V16.083z M2.042,29.999c0,1.102,0.9,2,2,2h3v-2.916h-5V29.999z M2.042,28.083h5v-3h-5V28.083z M2.042,24.083h5v-3h-5V24.083z
		 M2.042,20.083h5v-3h-5V20.083z M2.042,16.083h5V13h-5V16.083z M10.042,2.583c0-0.828-0.671-1.5-1.5-1.5s-1.5,0.672-1.5,1.5v5
		c0,0.829,0.671,1.5,1.5,1.5s1.5-0.671,1.5-1.5V2.583z M25.042,2.583c0-0.828-0.672-1.5-1.5-1.5s-1.5,0.672-1.5,1.5v5
		c0,0.829,0.672,1.5,1.5,1.5s1.5-0.671,1.5-1.5V2.583z M31.042,7c0-1.1-0.9-2-2-2h-3v2.583c0,1.381-1.119,2.5-2.5,2.5
		s-2.5-1.119-2.5-2.5V5h-10v2.583c0,1.381-1.119,2.5-2.5,2.5s-2.5-1.119-2.5-2.5V5h-2c-1.1,0-2,0.9-2,2v5h29V7z M31.042,13h-5v3.083
		h5V13z M31.042,17.083h-5v3h5V17.083z M31.042,21.083h-5v3h5V21.083z M31.042,25.083h-5v3h5V25.083z M31.042,29.083h-5v2.916h3
		c1.1,0,2-0.898,2-2V29.083z"/>
</g>
</svg>
