<?xml version="1.0" encoding="utf-8"?>
<!-- Generator: Adobe Illustrator 15.1.0, SVG Export Plug-In . SVG Version: 6.00 Build 0)  -->
<!DOCTYPE svg PUBLIC "-//W3C//DTD SVG 1.1//EN" "http://www.w3.org/Graphics/SVG/1.1/DTD/svg11.dtd">
<svg version="1.1" id="Layer_1" xmlns="http://www.w3.org/2000/svg" xmlns:xlink="http://www.w3.org/1999/xlink" x="0px" y="0px"
	 width="33px" height="34px" viewBox="0.021 0.042 33 34" enable-background="new 0.021 0.042 33 34" xml:space="preserve">
<path fill="#FFFFFF" d="M28.984,7.45H4.107c-1.69,0-3.065,1.375-3.065,3.064v12.705c0,1.689,1.375,3.064,3.065,3.064h24.876
	c1.689,0,3.064-1.375,3.064-3.064V10.515C32.048,8.825,30.673,7.45,28.984,7.45z"/>
<g>
	<path fill="#193849" d="M28.984,8.45c1.136,0,2.064,0.929,2.064,2.064v12.705c0,1.135-0.929,2.064-2.064,2.064H4.107
		c-1.136,0-2.065-0.93-2.065-2.064V10.515c0-1.136,0.929-2.064,2.065-2.064H28.984 M28.89,6.385H4.17c-2.277,0-4.13,1.853-4.13,4.13
		v12.705c0,2.277,1.853,4.131,4.13,4.131h24.72c2.277,0,4.131-1.854,4.131-4.131V10.515C33.021,8.237,31.167,6.385,28.89,6.385
		L28.89,6.385z M16.561,18.776c0.17,0,0.34-0.043,0.494-0.127l11.359-6.195c0.5-0.272,0.685-0.9,0.412-1.4
		c-0.273-0.501-0.9-0.686-1.401-0.412l-10.864,5.926L5.697,10.642c-0.501-0.273-1.128-0.089-1.401,0.412
		c-0.273,0.5-0.089,1.128,0.412,1.4l11.358,6.195C16.221,18.733,16.391,18.776,16.561,18.776L16.561,18.776z"/>
</g>
</svg>
