<?xml version="1.0" encoding="utf-8"?>
<!-- Generator: Adobe Illustrator 16.1.0, SVG Export Plug-In . SVG Version: 6.00 Build 0)  -->
<!DOCTYPE svg PUBLIC "-//W3C//DTD SVG 1.1//EN" "http://www.w3.org/Graphics/SVG/1.1/DTD/svg11.dtd">
<svg version="1.1" id="Layer_1" xmlns="http://www.w3.org/2000/svg" xmlns:xlink="http://www.w3.org/1999/xlink" x="0px" y="0px"
	 viewBox="0 0 740 224" width="740" height="112" enable-background="new 0 0 740 112" xml:space="preserve">
<path fill="#C9003A" d="M144.378,84.782h35.597c4.155,0,7.675-0.211,11.299-1.384c7.779-2.666,13.854-10.125,13.854-20.04
	c0-8.522-4.37-15.877-12.468-18.223v-0.212c5.861-2.984,9.483-8.847,9.483-16.2c0-8.101-4.369-14.282-10.336-16.946
	c-3.731-1.706-7.781-2.238-13.217-2.238h-34.212v8.208h9.378v58.724h-9.378V84.782z M164.416,41.193V18.277h14.174
	c3.198,0,5.648,0.426,7.78,1.494c3.198,1.812,4.904,5.542,4.904,9.91c0,6.822-4.263,11.51-11.084,11.51h-15.774V41.193z
	 M164.416,76.044V49.933h16.838c7.887,0,13.002,5.114,13.002,12.89c0,5.651-2.77,10.343-7.14,12.155
	c-2.026,0.854-4.584,1.062-6.714,1.062h-15.986V76.044z"/>
<path fill="#C9003A" d="M209.466,84.782h26.431V76.79h-7.993V62.504c0-10.546,4.903-22.164,16.414-22.164
	c1.705,0,2.982,0.319,2.982,0.319V30.429c0,0-1.279-0.215-2.665-0.215c-8.312,0-14.601,6.183-17.053,14.068h-0.212
	c0,0,0.212-1.598,0.212-3.729v-3.412c0-4.37-2.237-6.288-6.926-6.288h-12.15v7.994h6.715c1.491,0,2.344,0.746,2.344,2.344v35.597
	h-8.101v7.995H209.466L209.466,84.782z"/>
<path fill="#C9003A" d="M260.194,20.092h10.869V9.54h-10.869V20.092z M251.986,84.782h27.285V76.79h-8.527V30.855h-19.29v7.994
	h8.952v37.943h-8.42V84.782z"/>
<path fill="#C9003A" d="M288.028,94.798l-3.412,7.891c5.328,2.664,11.937,4.476,18.438,4.476c13.643,0,27.176-6.822,27.176-24.619
	V40.98c0-1.386,0.958-2.132,2.347-2.132h5.968v-7.994h-11.51c-4.477,0-6.181,2.025-6.181,5.436c0,1.387,0.212,2.133,0.212,2.133
	h-0.212c-2.983-6.183-10.443-8.847-17.479-8.847c-15.025,0-23.66,11.51-23.66,26.963c0,15.56,9.166,27.603,24.086,27.603
	c7.887,0,13.003-3.41,16.2-8.738h0.212c0,0-0.319,1.703-0.319,3.41v4.262c0,11.087-7.674,15.349-17.053,15.349
	C294.74,98.423,288.028,94.798,288.028,94.798z M305.825,75.191c-9.7,0-15.561-7.676-15.561-18.863
	c0-10.979,5.33-17.801,14.601-17.801c8.42,0,15.242,4.05,15.242,18.118C320.105,70.711,313.285,75.191,305.825,75.191z"/>
<path fill="#C9003A" d="M337.236,84.782h27.279V76.79h-8.523V59.522c0-11.509,7.458-20.461,18.011-20.461
	c8.63,0,10.229,5.968,10.229,13.536v32.188h18.759v-7.992h-8.418V50.251c0-13.747-5.863-20.676-18.544-20.676
	c-10.764,0-17.796,7.14-20.142,12.362h-0.211c0,0,0.318-1.918,0.318-4.477V9.539h-19.29v7.992h9.059v59.259h-8.525L337.236,84.782
	L337.236,84.782z"/>
<path fill="#C9003A" d="M408.181,65.064c0,18.012,13.748,20.144,20.57,20.144c2.238,0,3.73-0.211,3.73-0.211v-8.63
	c0,0-0.961,0.105-2.453,0.105c-4.051,0-11.513-1.387-11.513-12.368V38.849h12.896v-7.994h-12.896V16.042h-10.125v14.814h-9.274
	v7.994h9.062v26.215H408.181z"/>
<path fill="#C9003A" d="M431.721,57.711c0,16.414,12.999,28.349,29.095,28.349c16.097,0,29.1-11.938,29.1-28.349
	c0-16.306-13.003-28.136-29.1-28.136C444.72,29.575,431.721,41.405,431.721,57.711z M442.272,57.711
	c0-11.188,8.314-19.184,18.544-19.184c10.124,0,18.544,7.994,18.544,19.184c0,11.297-8.42,19.396-18.544,19.396
	C450.588,77.106,442.272,69.008,442.272,57.711z"/>
<path fill="#C9003A" d="M491.749,84.782h27.288V76.79h-8.529V59.737c0-10.764,7.14-20.676,18.016-20.676
	c8.629,0,10.125,5.968,10.125,13.536v32.188h18.863v-7.992h-8.526V50.251c0-13.747-5.544-20.676-17.905-20.676
	c-13.644,0-19.933,10.23-20.997,13.108h-0.213c0,0,0.32-1.385,0.32-3.09v-2.77c0-3.944-2.134-5.968-6.821-5.968h-12.152v7.994h6.609
	c1.492,0,2.348,0.746,2.348,2.344V76.79h-8.422v7.992H491.749z"/>
<path fill="#108BC1" d="M7.54,59.078c0,7.062,1.694,13.281,5.652,17.802c4.896,5.651,13.281,9.043,22.89,9.043
	c8.854,0,17.805-2.92,22.984-9.324c3.485-4.332,5.558-10.836,5.558-17.521V29.688h7.536V17.441H39.56v12.247h6.328v29.391
	c0,3.104-0.475,5.555-1.502,7.535c-1.74,3.203-4.587,4.709-8.227,4.709c-3.876,0-6.96-1.791-8.462-4.807
	c-0.872-1.789-1.424-4.427-1.424-7.438v-29.39h6.327V17.441H0v12.247h7.538v29.39H7.54z"/>
<path fill="#108BC1" d="M70.114,84.794h31.712V72.547h-5.84l6.312-8.855c1.227-1.791,1.885-3.203,2.072-3.203h0.189
	c0,0,0.847,1.507,2.166,3.203l6.783,8.855h-6.029v12.247h33.265V72.547h-7.101l-16.204-21.003l16.485-21.854h7.005V17.441h-31.757
	v12.247h5.652l-6.219,8.478c-1.319,1.79-2.071,3.204-2.071,3.108h-0.188c0,0-0.849-1.414-2.166-3.108l-6.405-8.478h5.84V17.441
	h-31.63v12.247h5.651l15.825,20.724l-16.58,22.135h-6.77L70.114,84.794L70.114,84.794z"/>
<path fill="#FFA039" d="M569.317,84.753H607.8V71.647h-5.309v8.127h-27.289c0.086-15.845,29.859-18.579,29.859-37.984
	c0-9.124-6.718-16.34-17.75-16.34c-12.438,0-17.668,10.534-17.668,10.534l4.151,2.82c0,0,4.558-8.046,13.185-8.046
	c7.299,0,12.11,4.728,12.11,11.197c0,16.091-30.106,18.58-30.106,39.068C568.985,82.181,569.067,83.427,569.317,84.753z"/>
<path fill="#FFA039" d="M635.08,85.749c15.18,0,20.153-13.271,20.153-30.19c0-16.754-4.975-30.108-20.153-30.108
	c-15.183,0-20.072,13.354-20.072,30.108C615.007,72.479,619.898,85.749,635.08,85.749z M635.08,80.441
	c-11.033,0-14.101-10.867-14.101-24.882c0-13.935,3.066-24.8,14.101-24.8c11.112,0,14.184,10.865,14.184,24.8
	C649.261,69.574,646.191,80.441,635.08,80.441z"/>
<path fill="#FFA039" d="M662.739,84.753h31.521v-4.976h-12.775v-53.33h-5.391l-13.187,13.105l3.647,3.649l6.221-6.138
	c2.322-2.24,2.902-3.484,2.902-3.484h0.166c0,0-0.084,1.576-0.084,3.236v42.962h-13.021V84.753L662.739,84.753z"/>
<path fill="#FFA039" d="M701.424,84.753h38.486V71.647h-5.31v8.127h-27.289c0.082-15.845,29.861-18.579,29.861-37.984
	c0-9.124-6.721-16.34-17.752-16.34c-12.441,0-17.666,10.534-17.666,10.534l4.146,2.82c0,0,4.562-8.046,13.189-8.046
	c7.299,0,12.107,4.728,12.107,11.197c0,16.091-30.107,18.58-30.107,39.068C701.091,82.181,701.175,83.427,701.424,84.753z"/>
</svg>
