<?xml version="1.0" encoding="utf-8"?>
<!-- Generator: Adobe Illustrator 16.0.0, SVG Export Plug-In . SVG Version: 6.00 Build 0)  -->
<!DOCTYPE svg PUBLIC "-//W3C//DTD SVG 1.1//EN" "http://www.w3.org/Graphics/SVG/1.1/DTD/svg11.dtd">
<svg version="1.1" id="Layer_1" xmlns="http://www.w3.org/2000/svg" xmlns:xlink="http://www.w3.org/1999/xlink" x="0px" y="0px"
	 width="739.979px" height="111.997px" viewBox="-184.99 -27.999 739.979 111.997"
	 enable-background="new -184.99 -27.999 739.979 111.997" xml:space="preserve">
<path fill="#C9003A" d="M-40.599,56.779h35.596c4.156,0,7.675-0.211,11.299-1.383c7.779-2.666,13.854-10.125,13.854-20.039
	c0-8.523-4.37-15.877-12.468-18.223v-0.212c5.861-2.984,9.483-8.847,9.483-16.2c0-8.101-4.369-14.282-10.336-16.946
	c-3.731-1.706-7.781-2.238-13.216-2.238h-34.212v8.208h9.378v58.723h-9.378V56.779z M-20.561,13.192V-9.724h14.174
	c3.198,0,5.648,0.426,7.78,1.494c3.198,1.812,4.904,5.542,4.904,9.91c0,6.822-4.263,11.51-11.084,11.51h-15.774V13.192z
	 M-20.561,48.041v-26.11h16.838c7.886,0,13.002,5.114,13.002,12.89c0,5.65-2.77,10.342-7.14,12.154
	c-2.026,0.854-4.584,1.062-6.714,1.062h-15.986V48.041z"/>
<path fill="#C9003A" d="M24.489,56.779h26.43v-7.992h-7.993V34.502c0-10.546,4.903-22.163,16.414-22.163
	c1.705,0,2.983,0.319,2.983,0.319V2.427c0,0-1.28-0.215-2.666-0.215c-8.312,0-14.6,6.183-17.052,14.068h-0.212
	c0,0,0.212-1.598,0.212-3.729V9.139c0-4.37-2.238-6.288-6.926-6.288h-12.15v7.994h6.714c1.492,0,2.344,0.746,2.344,2.344v35.595
	h-8.1v7.996H24.489z"/>
<path fill="#C9003A" d="M75.216-7.909h10.869v-10.553H75.216V-7.909z M67.008,56.779h27.285v-7.992h-8.527V2.854h-19.29v7.994h8.952
	v37.942h-8.42V56.779z"/>
<path fill="#C9003A" d="M103.05,66.795l-3.412,7.891c5.328,2.664,11.936,4.475,18.438,4.475c13.643,0,27.176-6.822,27.176-24.619
	V12.979c0-1.386,0.958-2.132,2.347-2.132h5.968V2.853h-11.51c-4.477,0-6.181,2.025-6.181,5.436c0,1.387,0.212,2.133,0.212,2.133
	h-0.212c-2.983-6.183-10.443-8.847-17.479-8.847c-15.026,0-23.66,11.51-23.66,26.963c0,15.559,9.166,27.602,24.086,27.602
	c7.886,0,13.002-3.41,16.2-8.738h0.212c0,0-0.32,1.703-0.32,3.41v4.262c0,11.086-7.674,15.348-17.052,15.348
	C109.762,70.42,103.05,66.795,103.05,66.795z M120.848,47.189c-9.7,0-15.561-7.676-15.561-18.863c0-10.978,5.33-17.8,14.601-17.8
	c8.42,0,15.242,4.05,15.242,18.118C135.127,42.709,128.308,47.189,120.848,47.189z"/>
<path fill="#C9003A" d="M152.258,56.779h27.279v-7.992h-8.523V31.521c0-11.509,7.458-20.461,18.01-20.461
	c8.631,0,10.229,5.968,10.229,13.536v32.187h18.758v-7.992h-8.418V22.25c0-13.747-5.863-20.676-18.543-20.676
	c-10.764,0-17.796,7.14-20.142,12.362h-0.21c0,0,0.318-1.918,0.318-4.477v-27.922h-19.29v7.992h9.058v59.257h-8.525V56.779
	L152.258,56.779z"/>
<path fill="#C9003A" d="M223.201,37.062c0,18.012,13.748,20.143,20.57,20.143c2.238,0,3.73-0.211,3.73-0.211v-8.629
	c0,0-0.961,0.105-2.453,0.105c-4.051,0-11.512-1.387-11.512-12.367V10.847h12.896V2.853h-12.896V-11.96h-10.125V2.854h-9.273v7.994
	h9.061v26.214H223.201z"/>
<path fill="#C9003A" d="M246.74,29.709c0,16.414,13,28.348,29.094,28.348c16.096,0,29.098-11.938,29.098-28.348
	c0-16.305-13.002-28.135-29.098-28.135C259.74,1.574,246.74,13.404,246.74,29.709z M257.291,29.709
	c0-11.188,8.314-19.183,18.543-19.183c10.123,0,18.543,7.994,18.543,19.183c0,11.297-8.42,19.395-18.543,19.395
	C265.607,49.104,257.291,41.006,257.291,29.709z"/>
<path fill="#C9003A" d="M306.766,56.779h27.287v-7.992h-8.529V31.736c0-10.764,7.139-20.676,18.014-20.676
	c8.629,0,10.125,5.968,10.125,13.536v32.187h18.863v-7.992h-8.527V22.25c0-13.747-5.543-20.676-17.904-20.676
	c-13.643,0-19.932,10.23-20.996,13.108h-0.213c0,0,0.32-1.385,0.32-3.09V8.822c0-3.944-2.133-5.968-6.82-5.968h-12.152v7.994h6.609
	c1.492,0,2.348,0.746,2.348,2.344v35.595h-8.422v7.992H306.766z"/>
<path fill="#108BC1" d="M-177.437,31.076c0,7.062,1.694,13.281,5.652,17.801c4.897,5.652,13.281,9.043,22.89,9.043
	c8.854,0,17.804-2.92,22.984-9.324c3.485-4.332,5.558-10.836,5.558-17.521V1.687h7.536V-10.56h-32.601V1.687h6.328v29.39
	c0,3.105-0.474,5.555-1.502,7.535c-1.74,3.203-4.586,4.709-8.226,4.709c-3.876,0-6.96-1.791-8.462-4.807
	c-0.872-1.789-1.424-4.426-1.424-7.438V1.687h6.327V-10.56h-32.6V1.687h7.538V31.076z"/>
<path fill="#108BC1" d="M-114.864,56.791h31.712V44.545h-5.84l6.312-8.855c1.226-1.791,1.884-3.203,2.072-3.203h0.189
	c0,0,0.847,1.506,2.166,3.203l6.784,8.855h-6.03v12.246h33.265V44.545h-7.101l-16.204-21.003l16.486-21.854h7.004V-10.56h-31.756
	V1.687h5.652l-6.219,8.478c-1.319,1.79-2.071,3.204-2.071,3.108h-0.188c0,0-0.848-1.414-2.166-3.108l-6.405-8.478h5.84V-10.56
	h-31.63V1.687h5.651l15.826,20.724l-16.58,22.135h-6.77V56.791z"/>
<path fill="#FFA039" d="M384.33,56.75h38.484V43.645h-5.309v8.127h-27.289c0.086-15.844,29.859-18.578,29.859-37.983
	c0-9.124-6.717-16.34-17.75-16.34c-12.438,0-17.668,10.534-17.668,10.534l4.152,2.82c0,0,4.557-8.046,13.184-8.046
	c7.299,0,12.111,4.728,12.111,11.197c0,16.091-30.107,18.579-30.107,39.067C383.998,54.178,384.08,55.424,384.33,56.75z"/>
<path fill="#FFA039" d="M450.094,57.746c15.18,0,20.154-13.271,20.154-30.189c0-16.754-4.975-30.108-20.154-30.108
	c-15.182,0-20.072,13.354-20.072,30.108C430.021,44.477,434.912,57.746,450.094,57.746z M450.094,52.439
	c-11.033,0-14.1-10.867-14.1-24.881c0-13.935,3.066-24.8,14.1-24.8c11.113,0,14.184,10.865,14.184,24.8
	C464.275,41.572,461.205,52.439,450.094,52.439z"/>
<path fill="#FFA039" d="M477.752,56.75h31.521v-4.975h-12.775V-1.554h-5.391L477.92,11.551l3.648,3.649l6.221-6.138
	c2.322-2.24,2.902-3.484,2.902-3.484h0.166c0,0-0.084,1.576-0.084,3.236v42.961h-13.021V56.75L477.752,56.75z"/>
<path fill="#FFA039" d="M516.438,56.75h38.486V43.645h-5.309v8.127h-27.289c0.082-15.844,29.861-18.578,29.861-37.983
	c0-9.124-6.721-16.34-17.752-16.34c-12.441,0-17.666,10.534-17.666,10.534l4.146,2.82c0,0,4.562-8.046,13.189-8.046
	c7.299,0,12.107,4.728,12.107,11.197c0,16.091-30.107,18.579-30.107,39.067C516.105,54.178,516.189,55.424,516.438,56.75z"/>
</svg>
