<?xml version="1.0" encoding="utf-8"?>
<!-- Generator: Adobe Illustrator 16.1.0, SVG Export Plug-In . SVG Version: 6.00 Build 0)  -->
<!DOCTYPE svg PUBLIC "-//W3C//DTD SVG 1.1//EN" "http://www.w3.org/Graphics/SVG/1.1/DTD/svg11.dtd">
<svg version="1.1" id="Layer_1" xmlns="http://www.w3.org/2000/svg" xmlns:xlink="http://www.w3.org/1999/xlink" x="0px" y="0px"
	 width="740px" height="112px" viewBox="-369.555 539.14 740 112" enable-background="new -369.555 539.14 740 112"
	 xml:space="preserve">
<path fill="#C9003A" d="M-225.114,622.428h35.612c4.157,0,7.679-0.211,11.305-1.384c7.782-2.667,13.859-10.13,13.859-20.05
	c0-8.525-4.372-15.883-12.473-18.231v-0.211c5.863-2.985,9.487-8.852,9.487-16.207c0-8.105-4.371-14.289-10.34-16.954
	c-3.733-1.707-7.785-2.239-13.223-2.239h-34.227v8.212h9.382v58.75h-9.382V622.428z M-205.067,578.82v-22.926h14.181
	c3.2,0,5.651,0.426,7.784,1.495c3.199,1.812,4.906,5.544,4.906,9.914c0,6.825-4.265,11.516-11.089,11.516L-205.067,578.82
	L-205.067,578.82z M-205.067,613.686v-26.122h16.846c7.891,0,13.008,5.116,13.008,12.896c0,5.653-2.771,10.348-7.143,12.16
	c-2.027,0.854-4.587,1.063-6.717,1.063h-15.994V613.686L-205.067,613.686z"/>
<path fill="#C9003A" d="M-159.997,622.428h26.443v-7.995h-7.997V600.14c0-10.551,4.905-22.174,16.422-22.174
	c1.705,0,2.983,0.319,2.983,0.319v-10.234c0,0-1.279-0.215-2.666-0.215c-8.316,0-14.607,6.186-17.061,14.074h-0.212
	c0,0,0.212-1.599,0.212-3.731v-3.412c0-4.372-2.238-6.291-6.929-6.291h-12.155v7.997h6.718c1.492,0,2.345,0.746,2.345,2.346v35.612
	h-8.104v7.998L-159.997,622.428L-159.997,622.428z"/>
<path fill="#C9003A" d="M-109.246,557.711h10.874v-10.557h-10.874V557.711z M-117.458,622.428h27.297v-7.995h-8.531v-45.956h-19.299
	v7.998h8.956v37.96h-8.424V622.428L-117.458,622.428z"/>
<path fill="#C9003A" d="M-81.4,632.45l-3.414,7.895c5.331,2.664,11.943,4.478,18.447,4.478c13.649,0,27.188-6.825,27.188-24.63
	v-41.585c0-1.387,0.959-2.133,2.349-2.133h5.97v-7.998h-11.515c-4.479,0-6.184,2.026-6.184,5.438c0,1.388,0.212,2.135,0.212,2.135
	h-0.212c-2.984-6.186-10.447-8.852-17.486-8.852c-15.033,0-23.671,11.515-23.671,26.976c0,15.566,9.17,27.614,24.097,27.614
	c7.891,0,13.009-3.41,16.208-8.741h0.212c0,0-0.319,1.704-0.319,3.411v4.265c0,11.092-7.677,15.355-17.061,15.355
	C-74.685,636.076-81.4,632.45-81.4,632.45z M-63.595,612.834c-9.705,0-15.568-7.68-15.568-18.872
	c0-10.983,5.333-17.809,14.607-17.809c8.425,0,15.249,4.052,15.249,18.127C-49.308,608.351-56.131,612.834-63.595,612.834z"/>
<path fill="#C9003A" d="M-32.17,622.428h27.291v-7.995h-8.526v-17.276c0-11.514,7.461-20.47,18.018-20.47
	c8.634,0,10.234,5.971,10.234,13.543v32.201h18.767v-7.995h-8.421v-26.554c0-13.754-5.866-20.686-18.552-20.686
	c-10.769,0-17.804,7.144-20.151,12.368h-0.211c0,0,0.317-1.92,0.317-4.479v-27.934h-19.298v7.996h9.062v59.285h-8.528
	L-32.17,622.428L-32.17,622.428z"/>
<path fill="#C9003A" d="M38.807,602.702c0,18.021,13.753,20.153,20.579,20.153c2.239,0,3.731-0.212,3.731-0.212v-8.633
	c0,0-0.961,0.104-2.454,0.104c-4.052,0-11.518-1.388-11.518-12.374v-25.266h12.901v-7.998H49.145v-14.819h-10.13v14.821h-9.278
	v7.998h9.065v26.226L38.807,602.702L38.807,602.702z"/>
<path fill="#C9003A" d="M62.357,595.345c0,16.422,13.004,28.362,29.107,28.362c16.104,0,29.113-11.943,29.113-28.362
	c0-16.312-13.008-28.148-29.113-28.148C75.361,567.197,62.357,579.033,62.357,595.345z M72.912,595.345
	c0-11.193,8.318-19.192,18.552-19.192c10.128,0,18.553,7.998,18.553,19.192c0,11.302-8.424,19.405-18.553,19.405
	C81.233,614.749,72.912,606.647,72.912,595.345z"/>
<path fill="#C9003A" d="M122.411,622.428h27.3v-7.995h-8.533v-17.061c0-10.769,7.143-20.686,18.023-20.686
	c8.633,0,10.13,5.971,10.13,13.543v32.201h18.871v-7.995h-8.53v-26.554c0-13.754-5.546-20.686-17.913-20.686
	c-13.65,0-19.942,10.234-21.006,13.114h-0.213c0,0,0.319-1.386,0.319-3.092v-2.771c0-3.946-2.135-5.972-6.824-5.972H121.88v7.998
	h6.611c1.494,0,2.35,0.746,2.35,2.345v35.613h-8.426v7.995H122.411z"/>
<path fill="#108BC1" d="M-362.012,596.714c0,7.064,1.694,13.286,5.654,17.81c4.898,5.654,13.288,9.047,22.9,9.047
	c8.858,0,17.813-2.922,22.994-9.328c3.486-4.334,5.561-10.841,5.561-17.528V567.31h7.54v-12.253h-32.614v12.253h6.331v29.404
	c0,3.104-0.475,5.558-1.503,7.538c-1.741,3.205-4.589,4.711-8.23,4.711c-3.878,0-6.963-1.791-8.465-4.809
	c-0.873-1.79-1.425-4.429-1.425-7.441V567.31h6.33v-12.253h-32.615v12.253h7.541v29.403H-362.012z"/>
<path fill="#108BC1" d="M-299.41,622.441h31.726v-12.253h-5.842l6.314-8.859c1.228-1.791,1.886-3.204,2.073-3.204h0.189
	c0,0,0.848,1.508,2.167,3.204l6.786,8.859h-6.032v12.253h33.28v-12.253h-7.104l-16.211-21.012l16.492-21.864h7.008v-12.255h-31.771
	v12.253h5.655l-6.222,8.482c-1.32,1.79-2.072,3.205-2.072,3.108h-0.188c0,0-0.85-1.414-2.167-3.108l-6.408-8.482h5.842v-12.253
	h-31.643v12.253h5.653l15.832,20.733l-16.587,22.145h-6.773L-299.41,622.441L-299.41,622.441z"/>
<path fill="#FFA039" d="M200.014,622.399h38.5v-13.111h-5.311v8.131h-27.301c0.086-15.853,29.873-18.588,29.873-38.001
	c0-9.128-6.722-16.347-17.758-16.347c-12.443,0-17.676,10.538-17.676,10.538l4.153,2.821c0,0,4.56-8.05,13.191-8.05
	c7.302,0,12.115,4.729,12.115,11.202c0,16.099-30.119,18.588-30.119,39.086C199.681,619.827,199.764,621.073,200.014,622.399z"/>
<path fill="#FFA039" d="M265.806,623.396c15.187,0,20.163-13.276,20.163-30.204c0-16.761-4.978-30.12-20.163-30.12
	c-15.19,0-20.081,13.359-20.081,30.12C245.724,610.12,250.617,623.396,265.806,623.396z M265.806,618.086
	c-11.038,0-14.107-10.871-14.107-24.894c0-13.94,3.067-24.81,14.107-24.81c11.117,0,14.191,10.869,14.191,24.81
	C279.993,607.215,276.922,618.086,265.806,618.086z"/>
<path fill="#FFA039" d="M293.477,622.399h31.535v-4.978h-12.781v-53.354h-5.394l-13.192,13.11l3.648,3.65l6.224-6.14
	c2.323-2.241,2.903-3.486,2.903-3.486h0.166c0,0-0.084,1.577-0.084,3.238v42.98h-13.027L293.477,622.399L293.477,622.399z"/>
<path fill="#FFA039" d="M332.18,622.399h38.503v-13.111h-5.312v8.131h-27.301c0.083-15.853,29.875-18.588,29.875-38.001
	c0-9.128-6.724-16.347-17.76-16.347c-12.447,0-17.674,10.538-17.674,10.538l4.148,2.821c0,0,4.564-8.05,13.194-8.05
	c7.303,0,12.113,4.729,12.113,11.202c0,16.099-30.12,18.588-30.12,39.086C331.846,619.827,331.931,621.073,332.18,622.399z"/>
</svg>
