<?xml version="1.0" encoding="utf-8"?>
<!-- Generator: Adobe Illustrator 15.1.0, SVG Export Plug-In . SVG Version: 6.00 Build 0)  -->
<!DOCTYPE svg PUBLIC "-//W3C//DTD SVG 1.1//EN" "http://www.w3.org/Graphics/SVG/1.1/DTD/svg11.dtd">
<svg version="1.1" id="Layer_1" xmlns="http://www.w3.org/2000/svg" xmlns:xlink="http://www.w3.org/1999/xlink" x="0px" y="0px"
	 width="370px" height="56px" viewBox="0 0 370 56" enable-background="new 0 0 370 56" xml:space="preserve">
<path fill="#C9003A" d="M72.188,43.565h17.798c2.078,0,3.837-0.106,5.649-0.692c3.89-1.333,6.927-5.063,6.927-10.02
	c0-4.261-2.185-7.938-6.234-9.111v-0.106c2.931-1.492,4.742-4.423,4.742-8.1c0-4.05-2.185-7.141-5.168-8.473
	c-1.866-0.853-3.891-1.119-6.608-1.119H72.188v4.104h4.689v29.361h-4.689V43.565z M82.207,21.771V10.313h7.087
	c1.599,0,2.824,0.213,3.89,0.747c1.599,0.906,2.452,2.771,2.452,4.955c0,3.411-2.131,5.755-5.542,5.755H82.207z M82.207,39.195
	V26.14h8.419c3.943,0,6.501,2.558,6.501,6.445c0,2.825-1.385,5.171-3.57,6.077c-1.013,0.427-2.292,0.532-3.357,0.532H82.207z"/>
<path fill="#C9003A" d="M104.732,43.565h13.215v-3.996h-3.997v-7.143c0-5.273,2.452-11.082,8.207-11.082
	c0.853,0,1.492,0.16,1.492,0.16v-5.116c0,0-0.64-0.107-1.333-0.107c-4.156,0-7.3,3.091-8.526,7.034h-0.106
	c0,0,0.106-0.799,0.106-1.865v-1.706c0-2.185-1.119-3.144-3.463-3.144h-6.075v3.997h3.357c0.746,0,1.172,0.373,1.172,1.172v17.798
	h-4.05V43.565z"/>
<path fill="#C9003A" d="M130.095,11.22h5.435V5.944h-5.435V11.22z M125.991,43.565h13.643v-3.996h-4.264V16.602h-9.645v3.997h4.476
	v18.971h-4.21V43.565z"/>
<path fill="#C9003A" d="M144.012,48.573l-1.706,3.944c2.664,1.332,5.968,2.238,9.219,2.238c6.821,0,13.588-3.411,13.588-12.31
	V21.664c0-0.693,0.479-1.066,1.173-1.066h2.984v-3.997h-5.755c-2.238,0-3.09,1.013-3.09,2.718c0,0.693,0.106,1.066,0.106,1.066
	h-0.106c-1.492-3.091-5.222-4.423-8.74-4.423c-7.513,0-11.83,5.755-11.83,13.481c0,7.779,4.583,13.801,12.043,13.801
	c3.943,0,6.501-1.705,8.1-4.369h0.106c0,0-0.16,0.852-0.16,1.705v2.131c0,5.543-3.837,7.674-8.526,7.674
	C147.368,50.385,144.012,48.573,144.012,48.573z M152.911,38.769c-4.85,0-7.78-3.838-7.78-9.431c0-5.489,2.665-8.9,7.3-8.9
	c4.21,0,7.621,2.025,7.621,9.059C160.051,36.53,156.641,38.769,152.911,38.769z"/>
<path fill="#C9003A" d="M168.616,43.565h13.64v-3.996h-4.262v-8.633c0-5.755,3.729-10.231,9.005-10.231
	c4.316,0,5.114,2.984,5.114,6.768v16.093h9.379v-3.996h-4.209V26.3c0-6.874-2.931-10.338-9.272-10.338
	c-5.381,0-8.897,3.57-10.07,6.181h-0.105c0,0,0.159-0.959,0.159-2.238V5.944h-9.645V9.94h4.529v29.628h-4.263V43.565z"/>
<path fill="#C9003A" d="M204.088,33.706c0,9.006,6.874,10.072,10.285,10.072c1.119,0,1.865-0.106,1.865-0.106v-4.315
	c0,0-0.48,0.053-1.227,0.053c-2.025,0-5.755-0.693-5.755-6.183V20.598h6.448v-3.997h-6.448V9.195h-5.062v7.407h-4.637v3.997h4.53
	V33.706z"/>
<path fill="#C9003A" d="M215.858,30.03c0,8.206,6.5,14.173,14.547,14.173s14.548-5.968,14.548-14.173
	c0-8.153-6.501-14.068-14.548-14.068S215.858,21.877,215.858,30.03z M221.133,30.03c0-5.595,4.157-9.592,9.271-9.592
	c5.062,0,9.272,3.997,9.272,9.592c0,5.647-4.21,9.697-9.272,9.697C225.291,39.727,221.133,35.677,221.133,30.03z"/>
<path fill="#C9003A" d="M245.87,43.565h13.643v-3.996h-4.264v-8.526c0-5.382,3.57-10.338,9.007-10.338
	c4.315,0,5.062,2.984,5.062,6.768v16.093h9.432v-3.996h-4.264V26.3c0-6.874-2.771-10.338-8.952-10.338
	c-6.821,0-9.965,5.115-10.498,6.554h-0.106c0,0,0.16-0.692,0.16-1.545v-1.385c0-1.972-1.066-2.984-3.411-2.984h-6.075v3.997h3.304
	c0.746,0,1.174,0.373,1.174,1.172v17.798h-4.211V43.565z"/>
<path fill="#108BC1" d="M3.769,30.713c0,3.531,0.847,6.64,2.826,8.9c2.449,2.827,6.641,4.522,11.445,4.522
	c4.427,0,8.902-1.46,11.492-4.663c1.743-2.166,2.779-5.418,2.779-8.76V16.018h3.768V9.895h-16.3v6.123h3.164v14.695
	c0,1.552-0.237,2.777-0.751,3.767c-0.87,1.602-2.293,2.355-4.113,2.355c-1.938,0-3.48-0.896-4.231-2.403
	c-0.436-0.895-0.712-2.214-0.712-3.719V16.018h3.164V9.895H0v6.123h3.769V30.713z"/>
<path fill="#108BC1" d="M35.055,43.571h15.856v-6.123h-2.92l3.156-4.428c0.613-0.896,0.942-1.602,1.036-1.602h0.095
	c0,0,0.423,0.753,1.083,1.602l3.392,4.428h-3.015v6.123H70.37v-6.123H66.82l-8.102-10.502l8.243-10.927h3.502V9.895H54.585v6.123
	h2.826l-3.109,4.239c-0.66,0.895-1.036,1.602-1.036,1.554h-0.094c0,0-0.424-0.707-1.083-1.554l-3.203-4.239h2.92V9.895H35.991v6.123
	h2.826L46.73,26.38l-8.29,11.067h-3.385V43.571z"/>
<path fill="#FFA039" d="M284.652,43.55h19.242v-6.553h-2.654v4.064h-13.644c0.042-7.922,14.93-9.29,14.93-18.992
	c0-4.562-3.359-8.17-8.875-8.17c-6.22,0-8.834,5.267-8.834,5.267l2.075,1.41c0,0,2.279-4.023,6.593-4.023
	c3.649,0,6.055,2.364,6.055,5.599c0,8.045-15.054,9.289-15.054,19.533C284.486,42.264,284.527,42.886,284.652,43.55z"/>
<path fill="#FFA039" d="M317.534,44.048c7.59,0,10.077-6.636,10.077-15.095c0-8.377-2.487-15.054-10.077-15.054
	s-10.036,6.677-10.036,15.054C307.498,37.413,309.944,44.048,317.534,44.048z M317.534,41.394c-5.516,0-7.05-5.433-7.05-12.44
	c0-6.967,1.534-12.4,7.05-12.4c5.557,0,7.092,5.433,7.092,12.4C324.625,35.961,323.09,41.394,317.534,41.394z"/>
<path fill="#FFA039" d="M331.364,43.55h15.76v-2.488h-6.388V14.398h-2.695l-6.594,6.552l1.825,1.825l3.11-3.069
	c1.161-1.12,1.451-1.742,1.451-1.742h0.083c0,0-0.042,0.788-0.042,1.618v21.48h-6.511V43.55z"/>
<path fill="#FFA039" d="M350.706,43.55h19.243v-6.553h-2.654v4.064h-13.644c0.041-7.922,14.93-9.29,14.93-18.992
	c0-4.562-3.36-8.17-8.876-8.17c-6.22,0-8.833,5.267-8.833,5.267l2.074,1.41c0,0,2.28-4.023,6.594-4.023
	c3.649,0,6.054,2.364,6.054,5.599c0,8.045-15.054,9.289-15.054,19.533C350.54,42.264,350.582,42.886,350.706,43.55z"/>
</svg>
