<?xml version="1.0" encoding="utf-8"?>
<!-- Generator: Adobe Illustrator 16.0.0, SVG Export Plug-In . SVG Version: 6.00 Build 0)  -->
<!DOCTYPE svg PUBLIC "-//W3C//DTD SVG 1.1//EN" "http://www.w3.org/Graphics/SVG/1.1/DTD/svg11.dtd">
<svg version="1.1" id="Layer_1" xmlns="http://www.w3.org/2000/svg" xmlns:xlink="http://www.w3.org/1999/xlink" x="0px" y="0px"
	 width="33px" height="34px" viewBox="0 0 33 34" enable-background="new 0 0 33 34" xml:space="preserve">
<g>
	<path fill="#FFFFFF" d="M11.178,28.693c-3.344,0-6.6-0.955-9.416-2.761c-0.393-0.252-0.559-0.741-0.401-1.181
		c0.144-0.4,0.523-0.661,0.94-0.661c0.04,0,0.08,0.002,0.121,0.007c0.41,0.05,0.834,0.075,1.261,0.075
		c1.621,0,3.179-0.354,4.601-1.036c-1.761-0.763-3.16-2.254-3.771-4.158c-0.108-0.336-0.031-0.704,0.203-0.969
		c0.007-0.008,0.014-0.016,0.021-0.022c-1.422-1.258-2.302-3.094-2.302-5.091c0-0.354,0.188-0.718,0.493-0.898
		c0.101-0.06,0.209-0.104,0.321-0.13c-0.497-0.955-0.767-2.028-0.767-3.141c0-1.197,0.318-2.377,0.919-3.413
		C3.567,5.03,3.861,4.845,4.188,4.819c0.026-0.002,0.053-0.003,0.079-0.003c0.299,0,0.584,0.134,0.775,0.368
		c2.511,3.08,6.11,5.072,10.015,5.577c-0.002-0.072-0.003-0.143-0.003-0.215c0-3.744,3.046-6.79,6.789-6.79
		c1.674,0,3.298,0.626,4.538,1.734c1.003-0.248,1.962-0.641,2.856-1.171c0.157-0.093,0.334-0.14,0.51-0.14
		c0.222,0,0.441,0.073,0.623,0.218c0.324,0.258,0.456,0.691,0.329,1.086c-0.112,0.352-0.253,0.692-0.419,1.018
		c0.081-0.021,0.164-0.031,0.247-0.031c0.288,0,0.57,0.125,0.765,0.356c0.287,0.341,0.314,0.83,0.066,1.2
		c-0.747,1.117-1.655,2.1-2.705,2.928c0.001,0.087,0.002,0.175,0.002,0.263C28.654,19.809,22.117,28.693,11.178,28.693z"/>
	<path fill="#193849" d="M21.842,4.757c1.666,0,3.171,0.704,4.228,1.827c1.319-0.259,2.558-0.74,3.677-1.404
		c-0.432,1.352-1.351,2.488-2.546,3.204c1.172-0.141,2.288-0.452,3.326-0.913c-0.776,1.161-1.759,2.181-2.889,2.998
		c0.011,0.248,0.017,0.498,0.017,0.749c0,7.651-5.825,16.475-16.477,16.475c-3.27,0-6.313-0.959-8.876-2.603
		c0.452,0.055,0.914,0.082,1.381,0.082c2.713,0,5.21-0.925,7.192-2.479c-2.534-0.048-4.672-1.722-5.41-4.021
		c0.354,0.067,0.716,0.104,1.089,0.104c0.528,0,1.04-0.07,1.526-0.203c-2.65-0.533-4.646-2.872-4.646-5.677c0-0.024,0-0.048,0-0.073
		c0.781,0.433,1.674,0.693,2.623,0.724c-1.554-1.038-2.576-2.811-2.576-4.82c0-1.06,0.287-2.054,0.784-2.911
		c2.855,3.503,7.122,5.809,11.936,6.051c-0.1-0.425-0.149-0.867-0.149-1.321C16.053,7.349,18.645,4.757,21.842,4.757 M30.526,7.472
		h0.005 M21.842,2.757c-3.971,0-7.257,2.987-7.73,6.832c-3.234-0.67-6.178-2.439-8.294-5.037c-0.381-0.468-0.952-0.736-1.55-0.736
		c-0.052,0-0.104,0.002-0.157,0.006C3.455,3.874,2.867,4.244,2.537,4.811c-0.69,1.188-1.055,2.542-1.055,3.916
		c0,0.948,0.171,1.871,0.492,2.731c-0.332,0.355-0.528,0.825-0.538,1.325l-0.001,0.113c0,2.02,0.785,3.895,2.087,5.299
		c-0.086,0.354-0.077,0.729,0.038,1.088C4.025,20.73,4.885,21.97,6,22.896c-0.749,0.183-1.525,0.276-2.318,0.276
		c-0.386,0-0.77-0.022-1.141-0.067c-0.081-0.01-0.162-0.015-0.241-0.015c-0.834,0-1.593,0.522-1.881,1.323
		c-0.316,0.877,0.017,1.856,0.802,2.36c2.977,1.909,6.42,2.919,9.956,2.919c11.476,0,18.369-9.249,18.476-18.264
		c0.95-0.807,1.785-1.738,2.489-2.777c0.243-0.331,0.387-0.739,0.387-1.18c0-0.692-0.352-1.302-0.885-1.662
		c0.002-0.007,0.005-0.014,0.007-0.021c0.253-0.791-0.01-1.656-0.66-2.173c-0.362-0.288-0.803-0.435-1.245-0.435
		c-0.352,0-0.704,0.092-1.02,0.28c-0.668,0.396-1.374,0.707-2.109,0.929C25.259,3.341,23.574,2.757,21.842,2.757L21.842,2.757z"/>
</g>
</svg>
